<?xml version="1.0" encoding="UTF-8"?>
<!-- Generator: visioncortex VTracer 0.6.12 -->
<svg version="1.1" xmlns="http://www.w3.org/2000/svg" width="1181" height="1181">
<path d="M0 0 C389.73 0 779.46 0 1181 0 C1181 389.73 1181 779.46 1181 1181 C791.27 1181 401.54 1181 0 1181 C0 791.27 0 401.54 0 0 Z " fill="#FDFDFD" transform="translate(0,0)"/>
<path d="M0 0 C98.34 0 196.68 0 298 0 C298 32.67 298 65.34 298 99 C278.5 114 278.5 114 276 114 C276 102.45 276 90.9 276 79 C254.55 79 233.1 79 211 79 C211.33 105.4 211.66 131.8 212 159 C240.3 139.76 240.3 139.76 254 130 C257.08 127.81 260.17 125.62 263.25 123.44 C263.95 122.94 264.66 122.44 265.38 121.92 C266.05 121.45 266.71 120.98 267.39 120.5 C267.97 120.09 268.55 119.67 269.14 119.25 C271.38 117.75 273.69 116.38 276 115 C276.07 129.03 276.12 143.06 276.16 157.09 C276.17 163.61 276.19 170.13 276.23 176.65 C276.26 182.95 276.28 189.25 276.28 195.55 C276.29 197.94 276.3 200.33 276.32 202.73 C276.53 235.3 271.05 265.11 247.74 289.35 C236.38 300.28 222.93 306.52 208 311 C206.95 311.32 205.9 311.63 204.82 311.96 C171.87 320.98 132.63 317.86 102.69 301.01 C98.81 298.69 95.39 295.97 92 293 C91.67 292.74 91.67 292.74 90 291.43 C77.48 281.31 66.75 263.98 64 248 C64.93 245.06 65.82 244.11 68.45 242.45 C69.47 241.96 70.49 241.47 71.55 240.97 C72.69 240.41 73.84 239.85 75.02 239.28 C75.63 238.99 76.23 238.7 76.86 238.4 C80.06 236.88 83.23 235.31 86.41 233.75 C87.05 233.44 87.69 233.13 88.35 232.8 C94.4 229.83 100.34 226.68 106.25 223.44 C107.12 222.96 107.99 222.49 108.89 222 C111.28 220.68 113.65 219.37 116 218 C116.65 217.74 117.29 217.48 117.96 217.22 C120.43 216.05 122.11 214.99 124 213 C125.22 208.74 125.07 204.54 125 200.13 C125.01 198.82 125.02 197.52 125.03 196.17 C125.06 192.59 125.04 189.01 125.01 185.43 C124.99 181.69 125.01 177.95 125.03 174.21 C125.06 167.12 125.05 160.04 125.02 152.96 C124.99 143.38 125.02 133.81 125.04 124.24 C125.08 109.16 125.03 94.08 125 79 C103.22 79 81.44 79 59 79 C59.17 112.76 59.17 112.76 59.26 127.03 C59.32 136.84 59.38 146.65 59.42 156.46 C59.46 163.6 59.5 170.75 59.54 177.9 C59.57 181.67 59.59 185.45 59.6 189.22 C59.67 205.57 59.97 221.76 62 238 C62.09 238.77 62.19 239.54 62.29 240.33 C62.52 242.22 62.76 244.11 63 246 C49.54 252.89 35.87 259.04 21.9 264.8 C19.82 265.66 17.74 266.54 15.66 267.42 C15.12 267.65 15.12 267.65 12.38 268.81 C11.39 269.23 10.41 269.65 9.4 270.08 C7 271 7 271 5 271 C13.85 291.64 27.47 308.84 45 323 C46.18 323.98 47.37 324.97 48.55 325.95 C70.19 343.86 93.48 359.32 120 369 C120.54 369.2 120.54 369.2 123.29 370.23 C158.94 382.88 199.06 388.86 236 378 C235.29 377.43 234.58 376.86 233.85 376.28 C225.41 369.19 225.41 369.19 224.88 364.94 C225 362 225 362 226.44 360.44 C231.34 357.69 237.02 359.78 242.29 360.94 C246.77 361.84 251.26 362.41 255.8 362.89 C256.49 362.97 257.18 363.05 257.89 363.12 C260.76 363.44 263.63 363.75 266.5 364.02 C268.62 364.23 270.74 364.47 272.86 364.71 C273.49 364.77 273.49 364.77 276.65 365.1 C280.72 366.2 282.37 367.75 285 371 C285.75 373.81 285.75 373.81 285 377 C282.95 379.95 280.53 382.45 278 385 C277.43 385.6 276.85 386.2 276.26 386.82 C272.75 390.43 269.05 393.77 265.23 397.04 C263.58 398.49 261.96 399.98 260.36 401.49 C247.41 413.68 247.41 413.68 240.36 414.19 C238 414 238 414 236.19 412.81 C234.57 410.34 234.76 408.94 235 406 C236.09 402.89 236.09 402.89 237.5 399.69 C237.73 399.15 237.73 399.15 238.91 396.45 C239.27 395.64 239.63 394.83 240 394 C239.41 394.14 239.41 394.14 236.45 394.84 C234.86 395.21 233.27 395.57 231.69 395.94 C230.92 396.12 230.15 396.3 229.37 396.49 C208.09 401.35 185.31 399.8 164 396 C163.05 395.83 162.11 395.67 161.13 395.5 C126.91 389.32 95.09 377.69 67 357 C66.41 356.57 65.82 356.13 65.21 355.69 C58.58 350.79 52.26 345.62 46.22 340.01 C44.67 338.6 43.06 337.26 41.42 335.96 C39.28 334.23 37.58 332.54 35.81 330.44 C33.01 327.14 30.09 323.97 27.12 320.81 C12.5 304.76 -0.36 284.93 -0.24 262.76 C-0.24 261.63 -0.24 260.51 -0.25 259.36 C-0.25 255.59 -0.24 251.82 -0.23 248.05 C-0.23 245.31 -0.23 242.56 -0.23 239.82 C-0.23 233.22 -0.22 226.61 -0.21 220.01 C-0.19 212.36 -0.19 204.72 -0.19 197.08 C-0.18 176.91 -0.15 156.73 -0.12 136.56 C-0.08 91.5 -0.04 46.43 0 0 Z " fill="#C00E3D" transform="translate(202,423)"/>
<path d="M0 0 C1.1 0 2.2 0 3.33 0.01 C4.57 0.01 5.81 0.01 7.09 0.01 C8.46 0.01 9.82 0.02 11.19 0.02 C12.57 0.02 13.96 0.03 15.35 0.03 C19.01 0.03 22.67 0.04 26.34 0.05 C30.07 0.06 33.8 0.07 37.54 0.07 C44.87 0.08 52.2 0.1 59.53 0.12 C64.08 9.67 68.36 19.29 72.38 29.07 C73.98 32.95 75.59 36.83 77.2 40.71 C77.54 41.53 77.88 42.36 78.23 43.21 C82.21 52.79 86.24 62.36 90.28 71.92 C91.1 73.86 91.92 75.8 92.73 77.74 C97.06 87.99 101.41 98.22 105.92 108.39 C107.53 112.08 109.01 115.82 110.5 119.56 C112.13 123.62 113.84 127.65 115.55 131.67 C116.32 133.51 117.1 135.34 117.87 137.17 C118.27 138.12 118.68 139.07 119.09 140.05 C125.93 156.21 132.73 172.38 139.45 188.59 C143.88 199.28 148.43 209.91 153.2 220.45 C153.62 221.37 154.03 222.29 154.45 223.23 C154.81 224.02 155.16 224.8 155.53 225.6 C156.75 228.69 157.61 231.92 158.53 235.12 C135.43 235.12 112.33 235.12 88.53 235.12 C86.55 229.84 84.57 224.56 82.53 219.12 C80.32 213.75 78.07 208.39 75.79 203.05 C75.58 202.54 75.58 202.54 74.5 200 C74.12 199.11 73.74 198.22 73.35 197.3 C72.53 195.12 72.53 195.12 72.53 193.12 C42.83 193.12 13.13 193.12 -17.47 193.12 C-18.46 196.09 -19.45 199.06 -20.47 202.12 C-21.16 203.9 -21.86 205.67 -22.6 207.42 C-22.97 208.34 -23.35 209.25 -23.74 210.19 C-24.13 211.12 -24.51 212.04 -24.91 213 C-25.68 214.85 -26.45 216.7 -27.22 218.55 C-27.39 218.95 -27.39 218.95 -28.24 220.99 C-30.08 225.67 -31.76 230.4 -33.47 235.12 C-55.91 235.12 -78.35 235.12 -101.47 235.12 C-98.1 224.98 -98.1 224.98 -96.08 220.13 C-95.63 219.03 -95.18 217.93 -94.71 216.8 C-94.46 216.21 -94.46 216.21 -93.22 213.25 C-92.7 211.98 -92.17 210.71 -91.64 209.43 C-87.24 198.87 -82.73 188.35 -78.21 177.84 C-73.49 166.88 -68.86 155.89 -64.29 144.87 C-58.51 130.94 -52.64 117.05 -46.72 103.18 C-39.99 87.38 -33.27 71.57 -26.6 55.75 C-25.81 53.88 -25.02 52.01 -24.24 50.15 C-21.26 43.09 -18.28 36.03 -15.3 28.97 C-13.63 25 -11.95 21.03 -10.27 17.06 C-9.66 15.61 -9.05 14.17 -8.44 12.72 C-7.62 10.76 -6.79 8.81 -5.97 6.85 C-5.51 5.76 -5.05 4.67 -4.57 3.55 C-3.03 0.15 -3.03 0.15 0 0 Z " fill="#354A7B" transform="translate(812.4740142822266,499.87974548339844)"/>
<path d="M0 0 C0.67 -0 1.35 -0.01 2.04 -0.01 C34.41 -0.1 67.82 9.1 92.88 30.31 C92.25 33.51 91.16 35.66 89.32 38.33 C89.06 38.72 89.06 38.72 87.72 40.66 C87.44 41.07 87.44 41.07 86 43.12 C85.71 43.55 85.71 43.55 84.24 45.68 C80.1 51.64 75.83 57.52 71.5 63.35 C68.39 67.55 65.54 71.81 62.88 76.31 C58.88 75.65 55.73 73.61 52.31 71.56 C46.32 68.06 40.25 65.05 33.88 62.31 C33.31 62.04 33.31 62.04 30.44 60.69 C19.73 56.55 8.78 55.14 -2.62 55.06 C-3.43 55.04 -4.23 55.02 -5.06 55 C-12.06 54.95 -17.63 56.14 -23.06 60.88 C-26.39 64.81 -26.47 67.16 -26.12 72.31 C-24.86 76.74 -22.78 78.87 -19.06 81.38 C-11.57 85.5 -3.36 87.28 4.88 89.31 C11.81 91.03 11.81 91.03 14.85 91.79 C18.35 92.66 21.85 93.52 25.35 94.37 C36.58 97.11 47.44 100.41 58 105.12 C58.77 105.47 59.54 105.81 60.34 106.17 C66.37 108.93 71.64 112.23 76.88 116.31 C77.55 116.76 78.23 117.2 78.93 117.66 C89.91 125 96.5 137 99.42 149.67 C102.89 169.74 99.39 190.24 87.99 207.1 C72.55 227.33 49.52 237.06 24.87 240.6 C-17.22 245.89 -61.15 234.55 -95.12 209.31 C-97.53 207.38 -99.83 205.39 -102.12 203.31 C-101.56 199.43 -99.79 197.55 -97.12 194.75 C-92.72 189.99 -88.6 185.07 -84.52 180.03 C-82.85 177.98 -81.17 175.94 -79.48 173.91 C-78.84 173.14 -78.21 172.37 -77.55 171.58 C-76.28 170.04 -75.01 168.51 -73.73 166.97 C-73.15 166.27 -72.57 165.57 -71.97 164.84 C-71.71 164.52 -71.71 164.52 -70.38 162.93 C-69.12 161.31 -69.12 161.31 -68.12 159.31 C-64.93 160.75 -62.16 162.63 -59.3 164.64 C-47 173.2 -33.73 179.71 -19.12 183.31 C-17.92 183.61 -16.71 183.91 -15.47 184.21 C-1.06 187.34 16.83 189.59 29.88 181.44 C33.22 177.88 33.78 175.21 34.31 170.38 C34.18 166.72 33.21 164.37 30.6 161.67 C23.58 156.12 14.91 153.99 6.38 151.94 C3.98 151.34 1.59 150.74 -0.8 150.14 C-2.01 149.84 -3.23 149.53 -4.48 149.22 C-69.09 133.08 -69.09 133.08 -83.89 108.69 C-92.67 91.82 -94.97 73.31 -90.29 54.75 C-83.22 33.9 -69.53 19.15 -49.97 9.19 C-44.53 6.6 -38.92 4.87 -33.12 3.31 C-31.94 2.99 -30.75 2.67 -29.52 2.34 C-19.74 0.19 -9.98 0.03 0 0 Z " fill="#354A7A" transform="translate(603.125,497.6875)"/>
<path d="M0 0 C0.07 14.03 0.12 28.06 0.16 42.09 C0.17 48.61 0.19 55.13 0.23 61.65 C0.26 67.95 0.28 74.25 0.28 80.55 C0.29 82.94 0.3 85.33 0.32 87.73 C0.53 120.3 -4.95 150.11 -28.26 174.35 C-39.62 185.28 -53.07 191.52 -68 196 C-69.05 196.32 -70.1 196.63 -71.18 196.96 C-104.13 205.98 -143.37 202.86 -173.31 186.01 C-177.19 183.69 -180.61 180.97 -184 178 C-184.66 177.48 -185.32 176.96 -186 176.43 C-198.52 166.31 -209.25 148.98 -212 133 C-211.07 130.06 -210.18 129.11 -207.55 127.45 C-206.53 126.96 -205.51 126.47 -204.45 125.97 C-203.88 125.69 -203.88 125.69 -200.98 124.28 C-200.37 123.99 -199.77 123.7 -199.14 123.4 C-195.94 121.88 -192.77 120.31 -189.59 118.75 C-189.27 118.6 -189.27 118.6 -187.65 117.8 C-181.6 114.83 -175.66 111.68 -169.75 108.44 C-168.88 107.96 -168.01 107.49 -167.11 107 C-164.73 105.68 -162.36 104.35 -160 103 C-159.24 102.57 -158.48 102.14 -157.69 101.69 C-157.33 101.48 -157.33 101.48 -155.52 100.41 C-155.2 100.23 -155.2 100.23 -153.6 99.29 C-151.69 97.75 -150.95 96.25 -150 94 C-149.11 97.01 -148.97 99.5 -149.12 102.62 C-149.18 112.73 -145.1 123.34 -138.3 130.89 C-136.6 132.4 -134.89 133.72 -133 135 C-132.72 135.19 -132.72 135.19 -131.28 136.18 C-124.39 140.48 -117.17 141.37 -109.25 141.31 C-108.86 141.31 -108.86 141.31 -106.87 141.3 C-94.52 141.04 -84.46 137.94 -75.75 128.88 C-66.63 117.37 -65.69 102.85 -66.08 88.81 C-66.11 86.29 -66.13 83.78 -66.15 81.26 C-66.19 77.34 -66.25 73.42 -66.37 69.5 C-67 48.19 -67 48.19 -63.66 42.86 C-60.01 39.05 -55.78 37.09 -51 35 C-49.04 33.75 -47.1 32.46 -45.19 31.12 C-44.22 30.48 -43.24 29.84 -42.24 29.18 C-36.17 25.1 -30.23 20.84 -24.26 16.6 C-21.94 14.95 -19.61 13.31 -17.27 11.67 C-16.89 11.4 -16.89 11.4 -14.95 10.03 C-13.48 8.99 -12 7.96 -10.53 6.92 C-7.85 5.03 -5.19 3.14 -2.58 1.16 C-1 0 -1 0 0 0 Z " fill="#344A7B" transform="translate(478,538)"/>
<path d="M0 0 C2.27 0.07 2.27 0.07 5 1 C6.49 3.29 7.62 5.36 8.75 7.81 C16.92 24.14 29.82 38.54 44 50 C45.18 50.98 46.37 51.97 47.55 52.95 C69.19 70.86 92.48 86.32 119 96 C120.08 96.41 121.17 96.81 122.29 97.23 C157.94 109.88 198.06 115.86 235 105 C234.29 104.43 233.58 103.86 232.85 103.28 C224.41 96.19 224.41 96.19 223.88 91.94 C224 89 224 89 225.44 87.44 C230.34 84.69 236.02 86.78 241.29 87.94 C245.77 88.84 250.26 89.41 254.8 89.89 C255.49 89.97 256.18 90.05 256.89 90.12 C259.76 90.44 262.63 90.75 265.5 91.02 C267.62 91.23 269.74 91.47 271.86 91.71 C272.49 91.77 272.49 91.77 275.65 92.1 C279.72 93.2 281.37 94.75 284 98 C284.75 100.81 284.75 100.81 284 104 C281.95 106.95 279.53 109.45 277 112 C276.43 112.6 275.85 113.2 275.26 113.82 C271.75 117.43 268.05 120.77 264.23 124.04 C262.58 125.49 260.96 126.98 259.36 128.49 C246.41 140.68 246.41 140.68 239.36 141.19 C237 141 237 141 235.19 139.81 C233.57 137.34 233.76 135.94 234 133 C235.09 129.89 235.09 129.89 236.5 126.69 C236.96 125.62 237.43 124.55 237.91 123.45 C238.09 123.05 238.09 123.05 239 121 C237.83 121.28 236.66 121.55 235.45 121.84 C233.86 122.21 232.27 122.57 230.69 122.94 C229.92 123.12 229.15 123.3 228.37 123.49 C207.09 128.35 184.31 126.8 163 123 C162.05 122.83 161.11 122.67 160.13 122.5 C125.91 116.32 94.09 104.69 66 84 C65.41 83.57 64.82 83.13 64.21 82.69 C57.58 77.79 51.26 72.62 45.22 67.01 C43.67 65.6 42.06 64.26 40.42 62.96 C38.28 61.23 36.58 59.54 34.81 57.44 C32.01 54.14 29.09 50.97 26.12 47.81 C14.66 35.23 0.99 17.5 0 0 Z " fill="#394C7A" transform="translate(203,696)"/>
<path d="M0 0 C0.08 7.72 0.13 15.44 0.16 23.16 C0.18 25.78 0.2 28.4 0.23 31.02 C0.26 34.81 0.28 38.59 0.29 42.38 C0.31 43.54 0.32 44.69 0.34 45.88 C0.34 60.12 -2.33 75.08 -12.25 85.94 C-23.27 95.89 -36.84 96.76 -50.95 96.14 C-60.38 95.48 -68.26 90.9 -74.79 84.15 C-79.87 77.82 -83.69 70.03 -85 62 C-85.14 61.19 -85.27 60.37 -85.41 59.54 C-85.65 56.82 -85.64 54.66 -85 52 C-82.48 49.17 -79.31 47.76 -76 46 C-66.55 40.71 -57.25 35.2 -48 29.56 C-47.39 29.19 -46.78 28.82 -46.15 28.44 C-32.21 19.95 -18.56 11.09 -5 2 C-2 0 -2 0 0 0 Z " fill="#FCFCFC" transform="translate(413,584)"/>
<path d="M0 0 C1.76 1.05 3.49 2.15 5.19 3.31 C5.8 3.7 6.41 4.08 7.04 4.47 C13.32 8.96 17.18 17.06 19.19 24.31 C20.35 34.84 18.45 43.97 12.38 52.69 C9.4 56.33 6.28 59 2.19 61.31 C1.52 61.71 0.84 62.1 0.15 62.5 C-8.15 66.59 -18.97 67.22 -27.88 64.74 C-35.78 61.84 -42.06 57.28 -46.81 50.31 C-47.11 49.88 -47.11 49.88 -48.62 47.69 C-52.84 39.26 -53.11 29.51 -51.2 20.36 C-47.77 10.72 -40.82 3.88 -31.73 -0.63 C-21.78 -4.87 -9.73 -4.64 0 0 Z " fill="#384C7A" transform="translate(894.8125,762.6875)"/>
<path d="M0 0 C0.76 0.01 1.52 0.01 2.3 0.02 C11.92 0.23 19.32 3.08 26.75 9.31 C34.72 17.66 37.42 25.14 37.17 36.63 C36.14 45.65 32.62 53.71 26 59.97 C16.27 67.52 5.88 69.73 -6.23 68.63 C-11.55 67.8 -15.86 65.3 -20.25 62.31 C-21.02 61.79 -21.79 61.28 -22.59 60.74 C-29.11 55.72 -31.71 48.94 -34.25 41.31 C-35.08 30.13 -34.3 21.07 -27.12 12.06 C-19.8 4.27 -10.62 -0.08 0 0 Z " fill="#374B7A" transform="translate(666.25,759.6875)"/>
<path d="M0 0 C6.21 -0.08 12.42 -0.16 18.81 -0.25 C20.75 -0.29 22.68 -0.32 24.68 -0.36 C35.19 -0.48 43.91 0.07 53 5.94 C58.51 11.62 59.43 17.38 59.34 25.05 C58.68 30.77 56.38 35.81 52.11 39.73 C50.19 41.12 50.19 41.12 47 43 C50.51 49.99 54.38 56.05 59.46 62 C61 64 61 64 61 66 C42.48 67.79 42.48 67.79 37 63.83 C34.98 60.97 33.44 58.19 32 55 C31.19 53.44 30.36 51.9 29.5 50.38 C29.2 49.74 28.9 49.11 28.59 48.46 C27 47 27 47 19 46 C19 52.6 19 59.2 19 66 C12.73 66 6.46 66 0 66 C0 44.22 0 22.44 0 0 Z " fill="#3A4E7C" transform="translate(566,761)"/>
<path d="M0 0 C20.06 13.42 36 32.72 42.14 56.31 C42.14 57.96 42.14 59.61 42.14 61.31 C37.85 61.31 33.56 61.31 29.14 61.31 C28.85 60.43 28.56 59.54 28.26 58.63 C20.98 37.33 9.1 22.45 -9.86 10.31 C-10.41 9.95 -10.97 9.6 -11.54 9.23 C-15.85 6.6 -20.01 5.23 -24.92 4.12 C-25.6 3.96 -26.28 3.79 -26.99 3.62 C-47.51 -1.25 -66.83 0.9 -85.15 11.52 C-95.69 18.05 -104.51 26.65 -110.86 37.31 C-111.38 38.17 -111.9 39.03 -112.43 39.92 C-116.37 46.78 -119.15 53.89 -121.86 61.31 C-126.15 61.31 -130.44 61.31 -134.86 61.31 C-133.89 44.58 -122.75 28.43 -111.86 16.31 C-111.24 15.6 -110.61 14.9 -109.97 14.17 C-96.73 0.04 -79.45 -7.72 -60.86 -11.69 C-60.21 -11.88 -59.57 -12.08 -58.9 -12.27 C-39.33 -16.29 -16.8 -9.94 0 0 Z " fill="#5F5F60" transform="translate(394.859375,349.69140625)"/>
<path d="M0 0 C6.27 0 12.54 0 19 0 C19 7.92 19 15.84 19 24 C26.59 24 34.18 24 42 24 C42 16.08 42 8.16 42 0 C48.27 0 54.54 0 61 0 C61 21.78 61 43.56 61 66 C54.73 66 48.46 66 42 66 C42 57.75 42 49.5 42 41 C34.41 41 26.82 41 19 41 C19 49.25 19 57.5 19 66 C12.73 66 6.46 66 0 66 C0 44.22 0 22.44 0 0 Z " fill="#384C7B" transform="translate(773,761)"/>
<path d="M0 0 C5.57 -0.06 11.14 -0.12 16.88 -0.19 C18.61 -0.21 20.35 -0.24 22.14 -0.27 C33.3 -0.37 42.96 -0.06 51.37 8.13 C56.32 13.81 56.61 19.45 56.4 26.78 C55.65 32.77 53.47 36.92 48.84 40.81 C46.61 42.36 44.41 43.74 42 45 C41.27 45.38 40.55 45.76 39.8 46.15 C35.75 47.38 31.89 47.21 27.69 47.12 C24.82 47.08 21.95 47.04 19 47 C19 53.27 19 59.54 19 66 C12.73 66 6.46 66 0 66 C0 44.22 0 22.44 0 0 Z " fill="#3A4D7C" transform="translate(923,761)"/>
<path d="M0 0 C5.69 -0.1 11.38 -0.21 17.25 -0.31 C19.02 -0.36 20.79 -0.4 22.61 -0.45 C32.38 -0.6 41.84 -0.16 49.72 6.44 C51.06 7.94 51.06 7.94 53 11 C53.6 11.87 54.2 12.73 54.81 13.62 C57.03 19.94 57.22 27.1 54.5 33.31 C50.74 39.64 44.95 44.52 37.85 46.58 C31.28 47.55 24.62 47.16 18 47 C18 53.27 18 59.54 18 66 C12.06 66 6.12 66 0 66 C0 44.22 0 22.44 0 0 Z " fill="#384B7A" transform="translate(503,761)"/>
<path d="M0 0 C0.72 -0.01 1.44 -0.02 2.19 -0.02 C8.83 0 15.04 1.15 21.06 4.12 C21.71 4.43 22.36 4.74 23.02 5.05 C25.23 6.64 26.02 7.6 26.69 10.25 C25.35 13.05 25.35 13.05 23.31 16 C22.64 16.98 21.98 17.97 21.29 18.98 C20.76 19.73 20.23 20.48 19.69 21.25 C16.12 20.65 13.11 19.66 9.81 18.19 C4.49 16 0.24 15.4 -5.31 17.25 C-5.31 18.9 -5.31 20.55 -5.31 22.25 C0.57 24.47 6.46 26.5 12.5 28.25 C19.73 30.45 24.27 32.88 28.69 39.25 C30.85 45.75 29.96 51.1 27.03 57.14 C24.08 61.78 19.74 65.14 14.69 67.25 C2.4 69.96 -10.9 69.32 -21.75 62.69 C-22.95 61.89 -24.13 61.07 -25.31 60.25 C-26.3 59.59 -27.29 58.93 -28.31 58.25 C-26.8 54.77 -24.74 52.29 -22.19 49.5 C-21.46 48.7 -20.74 47.9 -19.99 47.08 C-19.44 46.47 -18.88 45.87 -18.31 45.25 C-17.67 45.59 -17.03 45.93 -16.37 46.27 C-8.64 50.26 -2.09 52.84 6.69 52.25 C7.68 51.59 8.67 50.93 9.69 50.25 C9.69 48.93 9.69 47.61 9.69 46.25 C3.84 44.05 -1.98 42.05 -8 40.38 C-14.99 38.25 -19.99 35.45 -24.31 29.5 C-26.14 23.56 -26.3 17.78 -23.81 12 C-18.7 3.02 -9.82 -0.1 0 0 Z " fill="#384B7A" transform="translate(735.3125,759.75)"/>
<path d="M0 0 C2.95 3.45 4.46 7.27 6.04 11.46 C6.32 12.19 6.6 12.92 6.9 13.68 C7.81 16.05 8.72 18.43 9.62 20.81 C10.25 22.44 10.88 24.08 11.51 25.71 C12.45 28.15 13.39 30.6 14.33 33.05 C17.33 40.88 20.4 48.68 23.51 56.47 C23.84 57.32 24.18 58.17 24.52 59.04 C24.81 59.76 25.1 60.49 25.4 61.23 C26 63 26 63 26 65 C9.17 65 -7.66 65 -25 65 C-23.87 58.25 -23.87 58.25 -22.68 55.2 C-22.42 54.52 -22.15 53.84 -21.88 53.14 C-21.6 52.42 -21.31 51.7 -21.02 50.96 C-20.72 50.2 -20.42 49.44 -20.11 48.65 C-19.16 46.22 -18.21 43.8 -17.25 41.38 C-16.62 39.77 -15.99 38.16 -15.37 36.56 C-12.35 28.85 -9.28 21.16 -6.06 13.53 C-4.58 10 -3.19 6.43 -1.8 2.86 C-1 1 -1 1 0 0 Z " fill="#F8F9FB" transform="translate(840,578)"/>
<path d="M0 0 C5 2.82 8.61 6.44 10.44 11.94 C11.13 19.09 10.9 24.18 6.44 29.94 C1.66 33.64 -2.25 35.38 -8.37 35.28 C-13.92 34.42 -17.61 31.1 -21.06 26.88 C-23.76 21.37 -23.62 14.58 -21.94 8.79 C-17.56 -0.16 -9.03 -2.69 0 0 Z " fill="#F8F9FB" transform="translate(884.5625,777.0625)"/>
<path d="M0 0 C4.71 2.63 8.3 5.81 9.86 11.12 C10.87 18.11 10.44 23.6 6.44 29.5 C3.5 32.51 0.93 33.97 -3.26 34.55 C-12.13 34.56 -12.13 34.56 -16.7 32.55 C-21.63 27.63 -23.38 24.08 -23.7 17.18 C-23.48 11.38 -22.27 7.28 -18.14 3.12 C-12.68 -0.98 -6.45 -2.66 0 0 Z " fill="#F9FAFB" transform="translate(674.140625,776.8828125)"/>
<path d="M0 0 C97.68 0 195.36 0 296 0 C296 32.67 296 65.34 296 99 C294.02 100.32 292.04 101.64 290 103 C290.62 99.38 291.17 98.83 294 96 C293.67 64.98 293.34 33.96 293 2 C197.3 1.67 101.6 1.34 3 1 C3 1.66 3 2.32 3 3 C2.01 3 1.02 3 0 3 C0 2.01 0 1.02 0 0 Z " fill="#B3133C" transform="translate(203,424)"/>
<path d="M0 0 C13.49 -0.41 13.49 -0.41 18 3 C19.6 6.19 19.51 9.53 19 13 C17.13 15.43 15.72 16.64 13 18 C8.66 18.14 4.34 18.04 0 18 C0 12.06 0 6.12 0 0 Z " fill="#EEF0F4" transform="translate(521,776)"/>
<path d="M0 0 C0.33 0 0.66 0 1 0 C1.33 85.8 1.66 171.6 2 260 C4.31 259.67 6.62 259.34 9 259 C9 258.34 9 257.68 9 257 C10.65 257 12.3 257 14 257 C14 256.34 14 255.68 14 255 C16.31 255 18.62 255 21 255 C18.11 256.93 15.37 258.25 12.19 259.62 C11.17 260.07 10.15 260.52 9.11 260.98 C6 262 6 262 0 262 C0 175.54 0 89.08 0 0 Z " fill="#BA143F" transform="translate(203,432)"/>
<path d="M0 0 C12.05 -0.54 12.05 -0.54 15.69 1.88 C18.39 4.36 18.89 5.2 19.38 8.81 C18.88 13.06 17.26 14.35 14 17 C9.36 18.55 4.88 18.06 0 18 C0 12.06 0 6.12 0 0 Z " fill="#F4F6F8" transform="translate(942,776)"/>
<path d="M0 0 C2.58 -0.05 5.17 -0.09 7.75 -0.12 C8.11 -0.13 8.11 -0.13 9.96 -0.18 C16.82 -0.24 16.82 -0.24 20 2 C21.91 4.54 22.01 5.86 21.88 9.06 C21 12 21 12 19.49 13.67 C15.78 15.65 12.38 15.32 8.25 15.19 C7.46 15.17 6.66 15.16 5.85 15.15 C3.9 15.11 1.95 15.06 0 15 C0 10.05 0 5.1 0 0 Z " fill="#F8F9FA" transform="translate(585,777)"/>
<path d="M0 0 C4.65 1.42 9.28 2.87 13.91 4.34 C15.76 4.93 17.62 5.49 19.48 6.05 C20.45 6.36 21.43 6.68 22.44 7 C23.3 7.27 24.17 7.54 25.06 7.81 C27 9 27 9 27.79 11.62 C27.86 12.41 27.93 13.19 28 14 C25.52 16.48 24.03 17 20.5 17.44 C12.86 17.15 5.37 14.06 -1 10 C-1.99 10.66 -2.98 11.32 -4 12 C-3.53 7.16 -2.62 4.07 0 0 Z " fill="#F3F5F9" transform="translate(718,796)"/>
<path d="M0 0 C0.33 0.17 0.33 0.17 2 1 C2.15 16.92 2.3 32.83 2.44 48.75 C2.51 56.14 2.58 63.53 2.65 70.92 C2.71 77.36 2.77 83.81 2.83 90.25 C2.85 93.66 2.89 97.07 2.92 100.48 C2.96 104.29 2.99 108.1 3.02 111.91 C3.03 113.04 3.05 114.16 3.06 115.32 C3.1 120.67 2.96 125.74 2 131 C2.99 131.33 3.98 131.66 5 132 C3.68 132.33 2.36 132.66 1 133 C-0.02 129.95 -0.12 127.9 -0.12 124.7 C-0.12 123.61 -0.12 122.51 -0.12 121.38 C-0.12 120.17 -0.12 118.97 -0.11 117.73 C-0.11 116.46 -0.11 115.19 -0.11 113.88 C-0.11 110.4 -0.11 106.92 -0.1 103.45 C-0.1 99.81 -0.09 96.17 -0.09 92.54 C-0.09 85.65 -0.08 78.77 -0.07 71.88 C-0.06 64.05 -0.06 56.21 -0.05 48.37 C-0.04 32.25 -0.02 16.12 0 0 Z " fill="#A82246" transform="translate(327,502)"/>
<path d="M0 0 C0.33 0.99 0.66 1.98 1 3 C1.99 2.67 2.98 2.34 4 2 C6.52 1.9 9.01 1.86 11.53 1.87 C12.29 1.87 13.06 1.87 13.85 1.87 C16.38 1.86 18.9 1.86 21.43 1.87 C23.19 1.87 24.95 1.87 26.71 1.86 C30.39 1.86 34.07 1.86 37.76 1.87 C42.48 1.88 47.2 1.87 51.93 1.87 C55.56 1.86 59.19 1.86 62.81 1.87 C64.56 1.87 66.3 1.87 68.04 1.86 C70.47 1.86 72.91 1.87 75.34 1.87 C76.06 1.87 76.78 1.87 77.52 1.86 C80.83 1.88 83.84 1.98 87 3 C87 3.66 87 4.32 87 5 C75.82 5.02 64.64 5.04 53.46 5.05 C48.27 5.06 43.08 5.06 37.89 5.08 C32.89 5.09 27.88 5.09 22.88 5.09 C20.96 5.1 19.05 5.1 17.14 5.11 C14.47 5.11 11.79 5.11 9.12 5.11 C8.72 5.12 8.72 5.12 6.71 5.12 C1.23 5.11 1.23 5.11 -1 4 C-0.67 2.68 -0.34 1.36 0 0 Z " fill="#3C4B71" transform="translate(796,688)"/>
<path d="M0 0 C3.04 -0.03 3.04 -0.03 18.44 -0.19 C20.34 -0.21 22.24 -0.24 24.2 -0.27 C25.74 -0.28 27.27 -0.29 28.81 -0.29 C29.58 -0.31 30.36 -0.32 31.16 -0.34 C36.91 -0.34 41.65 0.9 47 3 C46.67 3.66 46.34 4.32 46 5 C41.12 4.12 41.12 4.12 40 3 C27.73 2.31 15.26 3.4 3 4 C1.68 6.64 1.88 8.6 1.89 11.55 C1.89 12.71 1.89 13.87 1.89 15.07 C1.89 16.33 1.9 17.59 1.9 18.88 C1.9 20.17 1.91 21.45 1.91 22.78 C1.91 26.19 1.92 29.61 1.93 33.02 C1.94 36.51 1.95 39.99 1.95 43.48 C1.96 50.32 1.98 57.16 2 64 C4.14 63.84 4.14 63.84 15 63 C15.33 57.72 15.66 52.44 16 47 C16.33 47 16.66 47 17 47 C17 52.94 17 58.88 17 65 C11.39 65 5.78 65 0 65 C0 43.55 0 22.1 0 0 Z " fill="#3A486F" transform="translate(567,761)"/>
<path d="M0 0 C0.33 0 0.66 0 1 0 C1.09 3.21 0.9 5.91 0 9 C-0.14 9.68 -0.29 10.36 -0.44 11.06 C-1 13 -1 13 -3 16 C0.06 17.78 2.27 18.25 5.8 18.24 C6.74 18.25 7.69 18.25 8.67 18.25 C9.69 18.25 10.7 18.24 11.75 18.23 C12.8 18.23 13.85 18.23 14.93 18.23 C17.15 18.23 19.37 18.22 21.59 18.21 C24.99 18.19 28.38 18.19 31.78 18.19 C33.94 18.18 36.09 18.17 38.25 18.17 C39.27 18.17 40.28 18.17 41.33 18.16 C42.28 18.16 43.23 18.15 44.2 18.15 C45.03 18.14 45.87 18.14 46.72 18.13 C48.95 18 50.85 17.56 53 17 C55 16.96 57 16.95 59 17 C59.33 14.69 59.66 12.38 60 10 C61.32 9.67 62.64 9.34 64 9 C62.67 13 61.33 17 60 21 C37.56 21 15.12 21 -8 21 C-6.21 15.64 -4.5 10.59 -2.31 5.44 C-1.88 4.4 -1.44 3.37 -0.99 2.31 C-0.66 1.55 -0.34 0.78 0 0 Z " fill="#5B6383" transform="translate(719,714)"/>
<path d="M0 0 C9.24 0 18.48 0 28 0 C28.66 0.99 29.32 1.98 30 3 C23.36 9.64 11.38 5.64 2 6 C2.33 25.47 2.66 44.94 3 65 C2.01 65 1.02 65 0 65 C0 43.55 0 22.1 0 0 Z " fill="#374770" transform="translate(924,761)"/>
<path d="M0 0 C0.33 0 0.66 0 1 0 C1 0.69 1.01 1.37 1.01 2.08 C1.09 18.89 1.18 35.69 1.29 52.5 C1.34 60.63 1.38 68.76 1.42 76.88 C1.46 83.98 1.5 91.07 1.54 98.17 C1.57 101.91 1.59 105.66 1.6 109.41 C1.67 125.69 1.98 141.82 4 158 C4.09 158.77 4.19 159.54 4.29 160.33 C4.52 162.22 4.76 164.11 5 166 C3.68 166.66 3.68 166.66 -3 170 C-3 169.34 -3 168.68 -3 168 C-2.34 168 -1.68 168 -1 168 C-0.67 167.01 -0.34 166.02 0 165 C0.99 165 1.98 165 3 165 C2.67 164.34 2.34 163.68 2 163 C-0.68 144.72 -0.28 126.03 -0.2 107.6 C-0.19 103.8 -0.19 100 -0.19 96.2 C-0.18 89.04 -0.16 81.89 -0.14 74.74 C-0.12 66.57 -0.11 58.41 -0.1 50.25 C-0.08 33.5 -0.04 16.75 0 0 Z " fill="#AA183C" transform="translate(260,503)"/>
<path d="M0 0 C0.33 0 0.66 0 1 0 C2.2 6.7 2.22 13.36 2.32 20.15 C2.34 21.41 2.36 22.66 2.38 23.96 C2.43 27.27 2.48 30.59 2.53 33.9 C2.58 37.3 2.64 40.69 2.69 44.08 C2.8 50.72 2.9 57.36 3 64 C4.98 63.86 6.96 63.71 8.94 63.56 C10.04 63.48 11.14 63.4 12.28 63.32 C15 63 15 63 16 62 C16.16 60.66 16.25 59.31 16.32 57.96 C16.36 57.16 16.4 56.35 16.44 55.51 C16.48 54.66 16.52 53.81 16.56 52.94 C16.61 52.08 16.65 51.23 16.69 50.35 C16.8 48.23 16.9 46.12 17 44 C17.33 44 17.66 44 18 44 C18 51.26 18 58.52 18 66 C12.06 66 6.12 66 0 66 C0 44.22 0 22.44 0 0 Z " fill="#586483" transform="translate(773,761)"/>
<path d="M0 0 C0.66 0 1.32 0 2 0 C2.1 0.64 2.21 1.28 2.31 1.94 C2.43 2.28 2.43 2.28 3 4 C3.99 4.33 4.98 4.66 6 5 C5.6 5.37 5.6 5.37 3.56 7.25 C1.1 9.89 0.62 10.67 0 14 C0.7 14.13 1.4 14.27 2.12 14.4 C3.03 14.58 3.94 14.76 4.88 14.94 C5.78 15.11 6.68 15.29 7.62 15.46 C10 16 10 16 12 17 C12 17.66 12 18.32 12 19 C12.83 18.81 13.65 18.63 14.5 18.44 C18.62 17.92 21.91 18.37 26 19 C26 19.33 26 19.66 26 20 C12.93 20.44 3.02 19.71 -8 12 C-8.99 11.34 -9.98 10.68 -11 10 C-9.56 6.63 -7.67 4.49 -5 2 C-4.34 2.33 -3.68 2.66 -3 3 C-2.67 2.67 -2.34 2.34 -2 2 C-1.34 1.34 -0.68 0.68 0 0 Z " fill="#354A7A" transform="translate(718,808)"/>
<path d="M0 0 C0.33 0 0.66 0 1 0 C1 21.78 1 43.56 1 66 C-5.27 66 -11.54 66 -18 66 C-18 57.75 -18 49.5 -18 41 C-17.67 41 -17.34 41 -17 41 C-16.67 48.59 -16.34 56.18 -16 64 C-11.05 63.67 -6.1 63.34 -1 63 C-0.67 42.21 -0.34 21.42 0 0 Z " fill="#757B98" transform="translate(833,761)"/>
<path d="M0 0 C2.5 0.31 2.5 0.31 5 1 C5.33 1.66 5.66 2.32 6 3 C8.06 3.62 8.06 3.62 10 4 C-6.15 13.77 -6.15 13.77 -14 18 C-13.67 16.35 -13.34 14.7 -13 13 C-12.34 13.16 -12.34 13.16 -9 14 C-9.66 12.02 -10.32 10.04 -11 8 C-10.2 8.19 -9.39 8.37 -8.56 8.56 C-7.72 8.71 -6.87 8.85 -6 9 C-5.67 8.67 -5.34 8.34 -5 8 C-5.66 7.34 -6.32 6.68 -7 6 C-5.62 3.24 -3.63 2.51 -1 1 C-0.67 0.67 -0.34 0.34 0 0 Z " fill="#BA1441" transform="translate(382,594)"/>
<path d="M0 0 C0.33 0 0.66 0 1 0 C1 32.34 1 64.68 1 98 C0.67 98 0.34 98 0 98 C0 68.3 0 38.6 0 8 C-0.66 8 -1.32 8 -2 8 C-2.69 6.25 -2.69 6.25 -3 4 C-1.62 1.75 -1.62 1.75 0 0 Z " fill="#3F496D" transform="translate(477,538)"/>
<path d="M0 0 C-0.33 1.32 -0.66 2.64 -1 4 C-2.65 4 -4.3 4 -6 4 C-6 4.66 -6 5.32 -6 6 C-8.72 7 -11.44 7.99 -14.16 8.97 C-16.3 9.75 -18.43 10.53 -20.56 11.31 C-23 12 -23 12 -25 11 C-5.14 -2.57 -5.14 -2.57 0 0 Z " fill="#45537B" transform="translate(565,504)"/>
<path d="M0 0 C3 1 3 1 4.16 2.7 C6.07 7.95 5.94 14.32 4.1 19.56 C3 21.75 3 21.75 1 25 C0.67 25 0.34 25 0 25 C0.07 24.29 0.14 23.57 0.22 22.84 C1.66 7.97 1.66 7.97 -1 3 C-0.67 2.01 -0.34 1.02 0 0 Z " fill="#4B567A" transform="translate(554,773)"/>
<path d="M0 0 C5.61 0 11.22 0 17 0 C17 7.59 17 15.18 17 23 C16.67 23 16.34 23 16 23 C16 16.4 16 9.8 16 3 C11.05 3 6.1 3 1 3 C0.67 4.32 0.34 5.64 0 7 C0 4.69 0 2.38 0 0 Z " fill="#3B486D" transform="translate(774,761)"/>
<path d="M0 0 C3.26 3.17 6.22 6.4 9 10 C6.69 10.33 4.38 10.66 2 11 C1.88 9.87 1.75 8.73 1.62 7.56 C1.42 6.39 1.21 5.21 1 4 C0.34 3.67 -0.32 3.34 -1 3 C-0.67 2.01 -0.34 1.02 0 0 Z M-9 2 C-8.34 2.33 -8.34 2.33 -5 4 C-5 4.66 -5 5.32 -5 6 C-3.35 5.67 -1.7 5.34 0 5 C1.48 7.96 1 10.7 1 14 C-3.74 10.75 -6.21 6.89 -9 2 Z " fill="#3C4D7B" transform="translate(228,728)"/>
<path d="M0 0 C0.7 0 1.4 0 2.12 0 C4.32 0.01 6.52 0.02 8.72 0.04 C10.22 0.04 11.73 0.04 13.23 0.05 C16.9 0.06 20.56 0.08 24.22 0.1 C24.22 0.43 24.22 0.76 24.22 1.1 C20.35 1.39 16.47 1.67 12.6 1.95 C10.65 2.09 8.7 2.24 6.76 2.39 C-1.78 3 -10.22 3.22 -18.78 3.1 C-13.29 -0.56 -6.43 -0.03 0 0 Z " fill="#596283" transform="translate(594.78125,497.90234375)"/>
<path d="M0 0 C1.65 0.33 3.3 0.66 5 1 C5.66 2.74 5.66 2.74 6 5 C5.01 7.01 5.01 7.01 3.47 9.11 C2.93 9.86 2.38 10.62 1.82 11.39 C1.24 12.17 0.66 12.95 0.06 13.75 C-0.51 14.54 -1.09 15.34 -1.69 16.15 C-3.11 18.11 -4.55 20.06 -6 22 C-7.11 18.68 -6.95 18.11 -5.75 15 C-5.5 14.32 -5.24 13.64 -4.98 12.94 C-3.92 10.84 -2.69 9.61 -1 8 C0.25 5.5 0.25 5.5 1 3 C0.67 2.01 0.34 1.02 0 0 Z " fill="#42507A" transform="translate(690,526)"/>
<path d="M0 0 C0 0.99 0 1.98 0 3 C-19.14 3 -38.28 3 -58 3 C-58 2.67 -58 2.34 -58 2 C-57.42 1.99 -56.83 1.98 -56.23 1.98 C-50.13 1.89 -44.03 1.79 -37.93 1.68 C-35.66 1.64 -33.38 1.61 -31.11 1.58 C-27.83 1.53 -24.56 1.47 -21.28 1.41 C-20.27 1.4 -19.26 1.39 -18.22 1.38 C-13.79 1.29 -9.72 1.06 -5.42 -0.09 C-2 -1 -2 -1 0 0 Z " fill="#3F486E" transform="translate(970,731)"/>
<path d="M0 0 C-0.33 1.65 -0.66 3.3 -1 5 C-3.97 4.67 -6.94 4.34 -10 4 C-10 2.68 -10 1.36 -10 0 C-18.57 -0.14 -18.57 -0.14 -22 1 C-22.33 2.32 -22.66 3.64 -23 5 C-23.32 2.03 -23.42 0.54 -21.56 -1.88 C-15.19 -4.67 -6.55 -1.41 0 0 Z " fill="#4B587D" transform="translate(450,785)"/>
<path d="M0 0 C0.99 0.66 1.98 1.32 3 2 C2.69 2.89 2.38 3.77 2.06 4.69 C1 8 1 8 0.62 10.5 C-0.23 13.9 -1.88 16.24 -4 19 C-4.66 19 -5.32 19 -6 19 C-6.14 19.4 -6.14 19.4 -6.88 21.44 C-8 24 -8 24 -10 25 C-10.66 24.34 -11.32 23.68 -12 23 C-11.11 22.09 -10.23 21.18 -9.31 20.25 C-4.43 14.59 -1.61 7.25 0 0 Z " fill="#424E75" transform="translate(411,647)"/>
<path d="M0 0 C0.33 0 0.66 0 1 0 C2.26 6.3 2.26 6.3 1.06 9.53 C-0.44 14.45 -0.47 19.26 -0.62 24.38 C-0.66 25.4 -0.7 26.42 -0.74 27.47 C-0.84 29.98 -0.92 32.49 -1 35 C-1.66 34.67 -2.32 34.34 -3 34 C-3.32 22.19 -3.19 11.46 0 0 Z " fill="#5E6887" transform="translate(514,549)"/>
<path d="M0 0 C0 18.48 0 36.96 0 56 C-0.33 56 -0.66 56 -1 56 C-1.33 38.84 -1.66 21.68 -2 4 C-3.32 3.67 -4.64 3.34 -6 3 C-2.25 0 -2.25 0 0 0 Z " fill="#CECBE0" transform="translate(413,584)"/>
<path d="M0 0 C0.99 0.99 1.98 1.98 3 3 C2.53 3.68 2.05 4.36 1.56 5.06 C-0.22 8.42 -0.63 11.24 -1 15 C0.65 15.33 2.3 15.66 4 16 C4 15.01 4 14.02 4 13 C4.99 13.16 4.99 13.16 10 14 C8.63 15.97 7.43 16.88 5.12 17.53 C-0.27 18.41 -0.27 18.41 -3 16.88 C-4.32 14.39 -4.19 12.8 -4 10 C-3.12 7.32 -3.12 7.32 -2 4.69 C-1.63 3.8 -1.26 2.92 -0.88 2.01 C-0.59 1.35 -0.3 0.68 0 0 Z " fill="#4B5979" transform="translate(441,819)"/>
<path d="M0 0 C0.66 0.33 1.32 0.66 2 1 C1.41 2.3 0.8 3.59 0.19 4.88 C-0.15 5.59 -0.49 6.31 -0.83 7.05 C-2 9 -2 9 -5 11 C-6.28 14.27 -7.21 17.58 -8 21 C-10.06 19.25 -10.06 19.25 -12 17 C-11.78 12.97 -9.23 10.76 -6.56 7.94 C-4.13 5.34 -1.98 2.97 0 0 Z " fill="#445175" transform="translate(513,684)"/>
<path d="M0 0 C0.33 0 0.66 0 1 0 C1.33 19.47 1.66 38.94 2 59 C1.34 59 0.68 59 0 59 C-0.33 59.66 -0.66 60.32 -1 61 C-0.67 40.87 -0.34 20.74 0 0 Z " fill="#435072" transform="translate(413,583)"/>
<path d="M0 0 C0.58 1.9 0.58 1.9 1 4 C-0.74 6.26 -2.6 7.4 -5 9 C-5.66 9 -6.32 9 -7 9 C-7.33 9.66 -7.66 10.32 -8 11 C-8.99 11 -9.98 11 -11 11 C-11.45 11.5 -11.91 11.99 -12.38 12.5 C-14 14 -14 14 -16.69 14.19 C-17.45 14.13 -18.21 14.06 -19 14 C-15.01 10.74 -10.89 7.73 -6.69 4.75 C-6.04 4.29 -5.4 3.83 -4.73 3.36 C-3.16 2.24 -1.58 1.12 0 0 Z " fill="#425174" transform="translate(469,544)"/>
<path d="M0 0 C5.61 0 11.22 0 17 0 C17 4.62 17 9.24 17 14 C16.67 14 16.34 14 16 14 C15.67 10.7 15.34 7.4 15 4 C12.69 3.84 12.69 3.84 1 3 C0.67 3.66 0.34 4.32 0 5 C0 3.35 0 1.7 0 0 Z " fill="#39486C" transform="translate(816,761)"/>
<path d="M0 0 C0.66 0.66 1.32 1.32 2 2 C1.67 3.32 1.34 4.64 1 6 C17.83 6 34.66 6 52 6 C52.16 6.33 52.16 6.33 53 8 C35.51 7.67 18.02 7.34 0 7 C-0.66 5.02 -1.32 3.04 -2 1 C-1.34 0.67 -0.68 0.34 0 0 Z " fill="#485576" transform="translate(814,637)"/>
<path d="M0 0 C0.99 0.66 1.98 1.32 3 2 C4.67 2.42 6.36 2.76 8.06 3.06 C12.81 3.91 12.81 3.91 15 5 C15 5.66 15 6.32 15 7 C15.83 6.81 16.65 6.63 17.5 6.44 C21.62 5.92 24.91 6.37 29 7 C29 7.33 29 7.66 29 8 C17.16 8.4 7.63 7.88 -3 2 C-2.01 1.34 -1.02 0.68 0 0 Z " fill="#4D587B" transform="translate(715,820)"/>
<path d="M0 0 C4.33 0.48 8.55 1.09 12.81 2 C18.18 3.12 23.54 3.61 29 4 C29 4.33 29 4.66 29 5 C26.86 5.16 26.86 5.16 16 6 C16 5.34 16 4.68 16 4 C14.68 4 13.36 4 12 4 C11.67 4.66 11.34 5.32 11 6 C10.3 5.67 9.6 5.34 8.88 5 C5.74 3.91 3.29 3.85 0 4 C-0.33 3.34 -0.66 2.68 -1 2 C-0.67 1.34 -0.34 0.68 0 0 Z " fill="#495679" transform="translate(352,802)"/>
<path d="M0 0 C0.33 0 0.66 0 1 0 C1.57 10.88 1.57 10.88 -2 15 C-2.66 15 -3.32 15 -4 15 C-4 16.65 -4 18.3 -4 20 C-4.99 20 -5.98 20 -7 20 C-5.69 12.74 -3.24 6.62 0 0 Z " fill="#4A577B" transform="translate(732,683)"/>
<path d="M0 0 C0.33 0 0.66 0 1 0 C1.09 3.21 0.9 5.91 0 9 C-0.14 9.68 -0.29 10.36 -0.44 11.06 C-1 13 -1 13 -3 16 C-2.67 16.66 -2.34 17.32 -2 18 C-2.33 18.66 -2.66 19.32 -3 20 C-4.65 20 -6.3 20 -8 20 C-7.04 17.42 -6.09 14.83 -5.12 12.25 C-4.86 11.52 -4.59 10.79 -4.31 10.04 C-3.03 6.6 -1.75 3.24 0 0 Z " fill="#4A597A" transform="translate(719,714)"/>
<path d="M0 0 C0.66 0.33 1.32 0.66 2 1 C2 1.66 2 2.32 2 3 C2.66 3.33 3.32 3.66 4 4 C1.36 4.99 -1.28 5.98 -4 7 C-4 7.99 -4 8.98 -4 10 C-4.66 10 -5.32 10 -6 10 C-6 10.66 -6 11.32 -6 12 C-10.75 11.25 -10.75 11.25 -13 9 C-8.71 6.03 -4.42 3.06 0 0 Z " fill="#42527C" transform="translate(443,562)"/>
<path d="M0 0 C0.33 0.99 0.66 1.98 1 3 C0.54 3.41 0.07 3.81 -0.4 4.23 C-2.21 6.23 -2.79 7.75 -3.56 10.31 C-3.81 11.11 -4.05 11.92 -4.31 12.74 C-4.54 13.49 -4.76 14.23 -5 15 C-5.37 15.97 -5.74 16.94 -6.12 17.94 C-7.35 22.24 -7.67 26.55 -8 31 C-8.33 31 -8.66 31 -9 31 C-9.52 20.19 -9.36 11.11 -2.25 2.38 C-1.88 1.98 -1.88 1.98 0 0 Z " fill="#566281" transform="translate(641,770)"/>
<path d="M0 0 C1.98 0 3.96 0 6 0 C2.54 2.86 -1.01 5.37 -4.81 7.75 C-5.79 8.36 -6.76 8.98 -7.77 9.61 C-8.51 10.07 -9.24 10.53 -10 11 C-10.33 10.34 -10.66 9.68 -11 9 C-10.34 8.01 -9.68 7.02 -9 6 C-8.01 6.33 -7.02 6.66 -6 7 C-6.66 5.02 -7.32 3.04 -8 1 C-5.36 1.33 -2.72 1.66 0 2 C0 1.34 0 0.68 0 0 Z " fill="#B41F48" transform="translate(379,601)"/>
<path d="M0 0 C-7.65 3.91 -7.65 3.91 -11 5 C-11.99 4.67 -12.98 4.34 -14 4 C-14 3.67 -14 3.34 -14 3 C-16.64 2.67 -19.28 2.34 -22 2 C-19.11 -0.89 -16.01 -0.5 -12.12 -0.69 C-11.76 -0.71 -11.76 -0.71 -9.94 -0.83 C-6.46 -1.03 -3.33 -1.16 0 0 Z " fill="#4E5C80" transform="translate(382,680)"/>
<path d="M0 0 C0.33 0 0.66 0 1 0 C1.03 0.3 1.03 0.3 1.17 1.8 C1.42 4.53 1.68 7.27 1.94 10 C2.02 10.93 2.11 11.87 2.2 12.83 C2.71 18.24 3.3 23.62 4 29 C2.68 29.66 2.68 29.66 -4 33 C-4 32.34 -4 31.68 -4 31 C-3.34 31 -2.68 31 -2 31 C-1.67 30.01 -1.34 29.02 -1 28 C-0.01 28 0.98 28 2 28 C1.67 27.34 1.34 26.68 1 26 C-0.49 17.45 -0.1 8.65 0 0 Z " fill="#AF2347" transform="translate(261,640)"/>
<path d="M0 0 C1.94 0.19 1.94 0.19 4 1 C5.25 3.06 5.25 3.06 6 5 C6.99 5 7.98 5 9 5 C9.93 8.01 10.04 8.87 9 12 C8.01 12.33 7.02 12.66 6 13 C5.66 12.39 5.32 11.77 4.98 11.14 C4.53 10.33 4.08 9.52 3.62 8.69 C3.18 7.89 2.74 7.09 2.29 6.26 C1.26 4.46 0.15 2.72 -1 1 C-0.67 0.67 -0.34 0.34 0 0 Z " fill="#F2F4F8" transform="translate(694,768)"/>
<path d="M0 0 C0.91 0.07 1.83 0.13 2.77 0.2 C4.99 0.36 7.22 0.55 9.44 0.75 C9.44 1.08 9.44 1.41 9.44 1.75 C8.33 1.79 7.22 1.82 6.07 1.86 C-2.19 2.21 -9.77 2.71 -17.56 5.75 C-18.22 5.09 -18.88 4.43 -19.56 3.75 C-12.8 0.01 -7.63 -0.71 0 0 Z " fill="#566184" transform="translate(598.5625,550.25)"/>
<path d="M0 0 C1.32 0 2.64 0 4 0 C4 0.66 4 1.32 4 2 C-3.03 4.87 -9.4 6.67 -17 7 C-15 4 -15 4 -11.78 3.09 C-10.51 2.85 -9.24 2.62 -7.94 2.38 C-1.08 1.08 -1.08 1.08 0 0 Z " fill="#404D72" transform="translate(417,728)"/>
<path d="M0 0 C0.33 0.99 0.66 1.98 1 3 C-0.94 5.56 -0.94 5.56 -4 8 C-7.11 8.15 -9.97 7.67 -13 7 C-4.25 0 -4.25 0 0 0 Z " fill="#3D4B79" transform="translate(312,645)"/>
<path d="M0 0 C0.33 0 0.66 0 1 0 C1.02 0.6 1.04 1.19 1.06 1.8 C1.16 4.49 1.26 7.18 1.38 9.88 C1.41 10.81 1.44 11.75 1.47 12.71 C1.51 13.61 1.55 14.51 1.59 15.43 C1.62 16.26 1.65 17.08 1.68 17.94 C2 20 2 20 4 22 C4.66 22.99 5.32 23.98 6 25 C2.25 28 2.25 28 0 28 C0 18.76 0 9.52 0 0 Z " fill="#B2153A" transform="translate(479,508)"/>
<path d="M0 0 C1.32 0.33 2.64 0.66 4 1 C4 1.99 4 2.98 4 4 C3.67 4.16 3.67 4.16 2 5 C2.33 6.22 2.66 7.43 3 8.69 C3.8 11.87 4.21 14.7 4 18 C1.53 15.53 0.89 13.41 -0.25 10.12 C-0.63 9.08 -1 8.03 -1.39 6.95 C-2 4 -2 4 -1.11 1.62 C-0.74 1.08 -0.38 0.55 0 0 Z " fill="#405074" transform="translate(268,667)"/>
<path d="M0 0 C0.66 0 1.32 0 2 0 C3.04 2.22 4.05 4.45 5.06 6.69 C5.36 7.31 5.65 7.94 5.96 8.58 C7.68 12.46 8.36 14.93 7 19 C6.34 19 5.68 19 5 19 C5 17.02 5 15.04 5 13 C4.01 12.67 3.02 12.34 2 12 C2 9.36 2 6.72 2 4 C1.34 4 0.68 4 0 4 C0 2.68 0 1.36 0 0 Z " fill="#4C577B" transform="translate(928,636)"/>
<path d="M0 0 C3.98 3.29 5.97 7 7 12 C7.24 16.68 7.18 21.32 7 26 C6.67 26 6.34 26 6 26 C5.95 25.16 5.9 24.31 5.85 23.45 C5.78 22.35 5.7 21.25 5.62 20.12 C5.56 19.03 5.49 17.94 5.41 16.82 C5 14 5 14 3 12 C1.58 8.37 1 5.94 1 2 C0.34 1.67 -0.32 1.34 -1 1 C-0.67 0.67 -0.34 0.34 0 0 Z " fill="#555F82" transform="translate(696,774)"/>
<path d="M0 0 C0.66 0.99 1.32 1.98 2 3 C-0.68 8.87 -3.06 13.77 -8 18 C-8 16.68 -8 15.36 -8 14 C-7.34 14 -6.68 14 -6 14 C-6.33 12.35 -6.66 10.7 -7 9 C-6.01 9.33 -5.02 9.66 -4 10 C-3.95 9.73 -3.95 9.73 -3.69 8.38 C-2.82 5.37 -1.44 2.76 0 0 Z " fill="#3E4C72" transform="translate(696,689)"/>
<path d="M0 0 C0.66 0.33 1.32 0.66 2 1 C0.28 6.45 -1.85 11.71 -4 17 C-4.15 17.45 -4.15 17.45 -4.94 19.75 C-5.11 20.12 -5.11 20.12 -6 22 C-6.99 22.33 -7.98 22.66 -9 23 C-6.54 15.08 -3.33 7.58 0 0 Z " fill="#4F5B7C" transform="translate(779,572)"/>
<path d="M0 0 C0.66 0.66 1.32 1.32 2 2 C-0.42 5.27 -1.82 5.97 -5.88 6.75 C-12.23 7.21 -18.63 7.08 -25 7 C-25 6.67 -25 6.34 -25 6 C-24.47 5.95 -24.47 5.95 -21.78 5.67 C-3.68 3.68 -3.68 3.68 0 0 Z " fill="#4B5779" transform="translate(633,679)"/>
<path d="M0 0 C0.28 0.08 0.28 0.08 1.7 0.46 C4.06 1.01 6.35 1.31 8.75 1.56 C9.55 1.65 10.35 1.73 11.17 1.82 C11.47 1.85 11.47 1.85 13 2 C12.67 3.65 12.34 5.3 12 7 C11.41 6.8 10.82 6.59 10.21 6.38 C6.16 5 2.23 3.68 -2 3 C-1.34 2.67 -0.68 2.34 0 2 C0 1.34 0 0.68 0 0 Z " fill="#46577F" transform="translate(627,553)"/>
<path d="M0 0 C0.66 0.33 1.32 0.66 2 1 C1.35 7.93 1.35 7.93 -2 11 C-2.07 11.42 -2.07 11.42 -2.44 13.56 C-2.62 14.37 -2.81 15.17 -3 16 C-5.04 17.15 -5.04 17.15 -7 18 C-6.02 15.37 -5.04 12.75 -4.06 10.12 C-3.78 9.38 -3.51 8.63 -3.22 7.86 C-1.11 2.23 -1.11 2.23 0 0 Z " fill="#485478" transform="translate(787,553)"/>
<path d="M0 0 C1.48 4.45 -0.08 7.83 -2 12 C-4.19 14.06 -4.19 14.06 -6 15 C-7 10.25 -7 10.25 -7 8 C-6.01 8 -5.02 8 -4 8 C-4 7.34 -4 6.68 -4 6 C-3.01 6 -2.02 6 -1 6 C-0.67 4.02 -0.34 2.04 0 0 Z " fill="#425077" transform="translate(977,787)"/>
<path d="M0 0 C1.01 0.33 2.02 0.66 3.06 1 C5.82 1.8 7.66 2 10.62 2 C14 2 16 2.54 19 4 C19 4.33 19 4.66 19 5 C11.23 6.53 6.2 5.14 -1 2 C-0.67 1.34 -0.34 0.68 0 0 Z " fill="#435278" transform="translate(318,728)"/>
<path d="M0 0 C0.66 0.33 1.32 0.66 2 1 C-0.64 7.6 -3.28 14.2 -6 21 C-6.66 21 -7.32 21 -8 21 C-7.01 16.71 -6.02 12.42 -5 8 C-4.01 8 -3.02 8 -2 8 C-1.93 7.53 -1.93 7.53 -1.56 5.12 C-1 2 -1 2 0 0 Z " fill="#465273" transform="translate(792,696)"/>
<path d="M0 0 C2.43 0.86 4.67 1.88 7 3 C7 3.66 7 4.32 7 5 C4.91 4.74 2.83 4.47 0.75 4.19 C-0.41 4.04 -1.57 3.89 -2.77 3.73 C-5.98 3 -7.58 2.18 -10 0 C-6.75 -1.62 -3.44 -0.72 0 0 Z " fill="#455076" transform="translate(542,762)"/>
<path d="M0 0 C4.02 -0.47 5.57 -0.32 8.88 2.12 C11.34 5.46 11.54 6.95 11 11 C10.67 11.66 10.34 12.32 10 13 C9.34 13 8.68 13 8 13 C7.67 9.7 7.34 6.4 7 3 C6.34 3 5.68 3 5 3 C5 2.34 5 1.68 5 1 C3.35 1 1.7 1 0 1 C0 0.67 0 0.34 0 0 Z " fill="#4D5876" transform="translate(476,789)"/>
<path d="M0 0 C0.75 -0 1.49 -0.01 2.26 -0.01 C6.52 -0 10.5 0.29 14.69 1.12 C14.69 1.46 14.69 1.78 14.69 2.12 C13.71 2.11 12.73 2.1 11.72 2.09 C-0.29 2.01 -0.29 2.01 -5.62 2.75 C-6.23 2.81 -6.23 2.81 -9.31 3.12 C-9.97 2.47 -10.63 1.8 -11.31 1.12 C-7.52 -0.14 -3.95 -0.02 0 0 Z " fill="#535E7E" transform="translate(735.3125,759.875)"/>
<path d="M0 0 C3.82 3.82 4.79 10.22 5.19 15.5 C5.19 17.34 5.1 19.17 5 21 C4.67 20.34 4.34 19.68 4 19 C3.34 18.67 2.68 18.34 2 18 C1.66 15.86 1.66 15.86 1.5 13.19 C1.29 9.55 0.67 7.22 -1 4 C-0.62 1.75 -0.62 1.75 0 0 Z " fill="#55607F" transform="translate(698,637)"/>
<path d="M0 0 C0.66 0.33 1.32 0.66 2 1 C0.62 3.5 0.62 3.5 -1 6 C-1.66 6 -2.32 6 -3 6 C-3.33 6.66 -3.66 7.32 -4 8 C-4.66 7.67 -5.32 7.34 -6 7 C-6.99 7.66 -7.98 8.32 -9 9 C-11.19 8.62 -11.19 8.62 -13 8 C-10.88 6.64 -8.76 5.28 -6.62 3.94 C-6.02 3.55 -5.42 3.16 -4.8 2.76 C-3.24 1.78 -1.62 0.88 0 0 Z " fill="#FBECEC" transform="translate(364,614)"/>
<path d="M0 0 C-0.33 1.32 -0.66 2.64 -1 4 C-2.65 4 -4.3 4 -6 4 C-6 4.66 -6 5.32 -6 6 C-7.98 6 -9.96 6 -12 6 C-12 5.01 -12 4.02 -12 3 C-10.38 2.3 -8.75 1.62 -7.12 0.94 C-6.22 0.55 -5.32 0.17 -4.38 -0.22 C-2 -1 -2 -1 0 0 Z " fill="#475478" transform="translate(565,504)"/>
<path d="M0 0 C0.99 0.33 1.98 0.66 3 1 C3 3.31 3 5.62 3 8 C1.02 8.99 -0.96 9.98 -3 11 C-2.53 6.94 -2.12 3.53 0 0 Z " fill="#666569" transform="translate(266,391)"/>
<path d="M0 0 C2.93 2.85 5.64 5.65 8 9 C6.68 9.33 5.36 9.66 4 10 C3.73 9.2 3.46 8.39 3.19 7.56 C2.8 6.72 2.4 5.87 2 5 C1.01 4.67 0.02 4.34 -1 4 C-1.33 5.65 -1.66 7.3 -2 9 C-3.5 7.62 -3.5 7.62 -5 6 C-5 5.34 -5 4.68 -5 4 C-4.34 4 -3.68 4 -3 4 C-3 3.34 -3 2.68 -3 2 C-2.01 1.34 -1.02 0.68 0 0 Z " fill="#465A7F" transform="translate(220,719)"/>
<path d="M0 0 C0.66 0.33 1.32 0.66 2 1 C2 1.66 2 2.32 2 3 C2.66 2.67 3.32 2.34 4 2 C4.66 1.67 5.32 1.34 6 1 C6.99 1.66 7.98 2.32 9 3 C7.38 4.01 5.75 5 4.12 6 C3.67 6.28 3.67 6.28 1.38 7.69 C-1 9 -1 9 -3 9 C-2.01 6.03 -1.02 3.06 0 0 Z " fill="#B51C46" transform="translate(335,624)"/>
<path d="M0 0 C2.8 0.66 2.8 0.66 17 4 C13 7 13 7 10.89 6.93 C10.21 6.72 9.52 6.52 8.81 6.31 C8.12 6.12 7.42 5.93 6.71 5.74 C5 5 5 5 4 3 C1.94 2.38 1.94 2.38 0 2 C0 1.34 0 0.68 0 0 Z " fill="#49567A" transform="translate(595,584)"/>
<path d="M0 0 C0.33 0 0.66 0 1 0 C1 5.61 1 11.22 1 17 C-0.65 16.67 -2.3 16.34 -4 16 C-3.34 15.34 -2.68 14.68 -2 14 C-1.62 11.25 -1.62 11.25 -1.44 8 C-1.1 2.19 -1.1 2.19 0 0 Z " fill="#3D466E" transform="translate(940,809)"/>
<path d="M0 0 C1.96 0.28 3.92 0.58 5.88 0.88 C6.97 1.04 8.06 1.2 9.18 1.37 C12 2 12 2 14 4 C13.42 3.99 12.84 3.98 12.24 3.96 C7.7 3.91 3.47 4.08 -1 5 C-1 2 -1 2 0 0 Z " fill="#4E5982" transform="translate(578,680)"/>
<path d="M0 0 C8.05 -0.34 14.5 -0.05 22 3 C21.67 3.66 21.34 4.32 21 5 C16.12 4.12 16.12 4.12 15 3 C12.48 2.6 9.97 2.25 7.44 1.94 C6.73 1.85 6.02 1.76 5.28 1.66 C3.52 1.44 1.76 1.22 0 1 C0 0.67 0 0.34 0 0 Z " fill="#445372" transform="translate(592,761)"/>
<path d="M0 0 C0.66 0 1.32 0 2 0 C3.59 3.19 3.1 6.63 3.06 10.12 C3.06 10.88 3.05 11.63 3.05 12.41 C3.04 14.27 3.02 16.14 3 18 C2.67 18 2.34 18 2 18 C0.77 11.93 -0.28 6.2 0 0 Z " fill="#435175" transform="translate(700,656)"/>
<path d="M0 0 C0.87 2.99 1.11 5.64 1.06 8.75 C1.05 9.55 1.04 10.35 1.04 11.17 C1.03 11.47 1.03 11.47 1 13 C-0.65 13 -2.3 13 -4 13 C-3.41 8.15 -2.02 4.39 0 0 Z " fill="#4A567F" transform="translate(764,607)"/>
<path d="M0 0 C0.66 0.33 1.32 0.66 2 1 C0.13 6.72 -1.85 12.38 -4 18 C-4.66 17.34 -5.32 16.68 -6 16 C-5.38 14.08 -4.75 12.17 -4.12 10.25 C-3.95 9.72 -3.95 9.72 -3.07 7.02 C-2.19 4.54 -1.24 2.3 0 0 Z " fill="#424E71" transform="translate(828,601)"/>
<path d="M0 0 C0.66 0.33 1.32 0.66 2 1 C-2.95 4.3 -7.9 7.6 -13 11 C-13.33 9.68 -13.66 8.36 -14 7 C-12.68 7 -11.36 7 -10 7 C-10 6.34 -10 5.68 -10 5 C-9.01 5 -8.02 5 -7 5 C-7 4.34 -7 3.68 -7 3 C-4.7 1.93 -2.36 0.94 0 0 Z " fill="#AE2647" transform="translate(406,586)"/>
<path d="M0 0 C0 0.33 0 0.66 0 1 C-1.98 1.33 -3.96 1.66 -6 2 C-7.04 5.13 -6.93 5.99 -6 9 C-6.83 8.67 -6.83 8.67 -11 7 C-11 5.35 -11 3.7 -11 2 C-7.37 -0.33 -4.23 -0.16 0 0 Z " fill="#E5EBF6" transform="translate(740,775)"/>
<path d="M0 0 C0.66 0 1.32 0 2 0 C2.67 2.33 3.34 4.67 4 7 C4.25 7.74 4.5 8.49 4.75 9.25 C5 11 5 11 3 14 C1.68 13.67 0.36 13.34 -1 13 C-0.34 12.67 0.32 12.34 1 12 C0.67 8.04 0.34 4.08 0 0 Z " fill="#EFC6D5" transform="translate(263,657)"/>
<path d="M0 0 C4.62 0.99 9.24 1.98 14 3 C13.67 3.66 13.34 4.32 13 5 C10.44 5.62 10.44 5.62 8 6 C8 5.34 8 4.68 8 4 C7.34 4 6.68 4 6 4 C6 4.66 6 5.32 6 6 C3 5 3 5 0 0 Z " fill="#46537B" transform="translate(622,591)"/>
<path d="M0 0 C2 1 2 1 4 3 C4 2.34 4 1.68 4 1 C5.32 1.33 6.64 1.66 8 2 C7.83 2.6 7.67 3.2 7.5 3.81 C7 6 7 6 7 9 C4.03 6.69 1.06 4.38 -2 2 C-1.34 1.34 -0.68 0.68 0 0 Z " fill="#676768" transform="translate(392,361)"/>
<path d="M0 0 C0.99 0.33 1.98 0.66 3 1 C1.02 3.97 -0.96 6.94 -3 10 C-4.65 9.67 -6.3 9.34 -8 9 C-7.01 8.67 -6.02 8.34 -5 8 C-4.3 6.35 -3.64 4.68 -3 3 C-1.38 1.19 -1.38 1.19 0 0 Z " fill="#4C587C" transform="translate(758,771)"/>
<path d="M0 0 C2.92 1.07 4.78 1.78 7 4 C9.12 3.62 9.12 3.62 11 3 C11 3.99 11 4.98 11 6 C10.34 6.66 9.68 7.32 9 8 C7.19 8 7.19 8 5 7 C0 1.99 0 1.99 0 0 Z " fill="#EFF0F5" transform="translate(220,718)"/>
<path d="M0 0 C3.88 4.75 3.88 4.75 5 7 C4.34 7 3.68 7 3 7 C2.67 7.66 2.34 8.32 2 9 C2 8.34 2 7.68 2 7 C0.68 7.33 -0.64 7.66 -2 8 C-2.33 7.01 -2.66 6.02 -3 5 C-1.56 2.31 -1.56 2.31 0 0 Z " fill="#F2F6F7" transform="translate(276,695)"/>
<path d="M0 0 C0.66 0.99 1.32 1.98 2 3 C1.43 4.3 0.85 5.59 0.25 6.88 C-0.07 7.59 -0.4 8.31 -0.73 9.05 C-2.22 11.34 -3.5 12 -6 13 C-4.59 8.17 -2.57 4.28 0 0 Z " fill="#4D5C7B" transform="translate(522,533)"/>
<path d="M0 0 C1.59 0.43 3.17 0.87 4.75 1.31 C5.19 1.43 5.19 1.43 7.42 2.05 C10.06 3.02 11.85 4.21 14 6 C13.67 6.66 13.34 7.32 13 8 C12.01 8 11.02 8 10 8 C10 7.01 10 6.02 10 5 C7.36 4.67 4.72 4.34 2 4 C2 3.34 2 2.68 2 2 C1.34 2 0.68 2 0 2 C0 1.34 0 0.68 0 0 Z " fill="#46557A" transform="translate(657,507)"/>
<path d="M0 0 C2.31 0 4.62 0 7 0 C4.04 1.98 1.21 3.3 -2.06 4.69 C-3.13 5.15 -4.19 5.6 -5.29 6.07 C-6.18 6.38 -7.08 6.69 -8 7 C-8.66 6.67 -9.32 6.34 -10 6 C-9.67 5.34 -9.34 4.68 -9 4 C-7.68 4 -6.36 4 -5 4 C-5 3.34 -5 2.68 -5 2 C-3.35 2 -1.7 2 0 2 C0 1.34 0 0.68 0 0 Z " fill="#B6244C" transform="translate(217,687)"/>
<path d="M0 0 C0.66 0 1.32 0 2 0 C2.31 2.19 2.31 2.19 2 5 C-0.25 7.88 -0.25 7.88 -3 10 C-5.31 9.81 -5.31 9.81 -7 9 C-6.22 8.26 -5.43 7.51 -4.62 6.75 C-2.43 4.46 -1.17 2.88 0 0 Z " fill="#49567A" transform="translate(683,800)"/>
<path d="M0 0 C0.33 0 0.66 0 1 0 C1 4.95 1 9.9 1 15 C-2.38 10.5 -2.38 10.5 -2.19 6.25 C-2.16 5.45 -2.13 4.65 -2.11 3.83 C-2.07 3.22 -2.04 2.62 -2 2 C-1.34 2 -0.68 2 0 2 C0 1.34 0 0.68 0 0 Z " fill="#3E4675" transform="translate(940,778)"/>
<path d="M0 0 C0.33 0 0.66 0 1 0 C1.37 7.53 1.37 7.53 -0.38 9.75 C-0.64 9.96 -0.64 9.96 -2 11 C-3.19 13.19 -3.19 13.19 -4 15 C-5.33 11.02 -4.23 9.6 -2.56 5.81 C-2.09 4.73 -1.62 3.64 -1.13 2.52 C-0.76 1.69 -0.38 0.86 0 0 Z " fill="#4D587C" transform="translate(754,631)"/>
<path d="M0 0 C1.19 1.62 1.19 1.62 2 4 C0.47 8.17 -1.22 10.65 -5 13 C-5.33 12.01 -5.66 11.02 -6 10 C-5.38 9.46 -4.76 8.93 -4.12 8.38 C-1.72 5.69 -0.94 3.45 0 0 Z " fill="#445175" transform="translate(762,809)"/>
<path d="M0 0 C4.7 2.13 8.16 4.62 12 8 C11.67 8.5 11.67 8.5 10 11 C9.72 10.62 9.72 10.62 8.31 8.69 C6.02 6.02 3.98 4.77 1 3 C0.67 2.01 0.34 1.02 0 0 Z " fill="#495677" transform="translate(894,763)"/>
<path d="M0 0 C0.99 0.99 1.98 1.98 3 3 C3 5.56 3 5.56 2 8 C-0.56 9.31 -0.56 9.31 -3 10 C-2.01 6.7 -1.02 3.4 0 0 Z " fill="#455279" transform="translate(723,704)"/>
<path d="M0 0 C0.66 0.99 1.32 1.98 2 3 C1.32 5.48 1.32 5.48 0.12 8.19 C-0.26 9.09 -0.65 9.99 -1.05 10.92 C-1.37 11.61 -1.68 12.29 -2 13 C-2.33 13 -2.66 13 -3 13 C-3.27 7.61 -3.36 4.48 0 0 Z " fill="#485478" transform="translate(470,673)"/>
<path d="M0 0 C2 2 2 2 2.19 5.5 C2 9 2 9 1 11 C0.34 11 -0.32 11 -1 11 C-2.23 4.6 -2.23 4.6 -1.06 1.56 C-0.71 1.05 -0.36 0.53 0 0 Z " fill="#424E76" transform="translate(515,584)"/>
<path d="M0 0 C2.12 0.38 2.12 0.38 4 1 C4 1.66 4 2.32 4 3 C4.83 2.81 5.65 2.63 6.5 2.44 C10.62 1.92 13.91 2.37 18 3 C18 3.33 18 3.66 18 4 C15.42 4.05 12.83 4.09 10.25 4.12 C9.52 4.14 8.79 4.16 8.04 4.18 C4.2 4.21 1.25 4.17 -2 2 C-1.34 1.34 -0.68 0.68 0 0 Z " fill="#596384" transform="translate(726,824)"/>
<path d="M0 0 C2.16 0.24 2.16 0.24 4.62 0.88 C5.44 1.08 6.26 1.28 7.1 1.49 C7.41 1.58 7.41 1.58 9 2 C9.33 1.34 9.66 0.68 10 0 C10 0.66 10 1.32 10 2 C10.66 2 11.32 2 12 2 C12 2.66 12 3.32 12 4 C12.99 4.33 13.98 4.66 15 5 C9.15 4.49 3.67 3.55 -2 2 C-1.34 1.34 -0.68 0.68 0 0 Z " fill="#4A5579" transform="translate(564,731)"/>
<path d="M0 0 C2.31 0.66 4.62 1.32 7 2 C5.38 3.71 3.71 5.37 2 7 C1.34 7 0.68 7 0 7 C-1.12 2.25 -1.12 2.25 0 0 Z " fill="#EFF2F5" transform="translate(433,562)"/>
<path d="M0 0 C0.37 0.05 0.37 0.05 2.25 0.31 C1.32 1.46 0.38 2.61 -0.56 3.75 C-0.82 4.07 -0.82 4.07 -2.14 5.68 C-3.75 7.31 -3.75 7.31 -6.75 8.31 C-6.75 3.74 -4.7 0.53 0 0 Z " fill="#475577" transform="translate(457.75,824.6875)"/>
<path d="M0 0 C0.99 0 1.98 0 3 0 C3.62 1.81 3.62 1.81 4 4 C3.67 4.5 3.67 4.5 2 7 C1.34 6.67 0.68 6.34 0 6 C-0.33 6.16 -0.33 6.16 -2 7 C-2.66 6.34 -3.32 5.68 -4 5 C-2.19 2.5 -2.19 2.5 0 0 Z " fill="#415179" transform="translate(523,672)"/>
<path d="M0 0 C0.99 0.66 1.98 1.32 3 2 C2.69 2.89 2.38 3.77 2.06 4.69 C1.17 7.47 0.51 10.13 0 13 C-0.33 12.34 -0.66 11.68 -1 11 C-1.66 11 -2.32 11 -3 11 C-2.01 7.37 -1.02 3.74 0 0 Z " fill="#4E5B82" transform="translate(411,647)"/>
<path d="M0 0 C0.66 0 1.32 0 2 0 C2.7 1.45 3.38 2.91 4.06 4.38 C4.25 4.78 4.25 4.78 5.22 6.84 C5.48 7.55 5.74 8.26 6 9 C5.67 9.66 5.34 10.32 5 11 C4.01 10.67 3.02 10.34 2 10 C2 8.35 2 6.7 2 5 C1.34 5 0.68 5 0 5 C0 3.35 0 1.7 0 0 Z " fill="#495579" transform="translate(905,582)"/>
<path d="M0 0 C0.66 0.99 1.32 1.98 2 3 C1.67 3.66 1.34 4.32 1 5 C0.01 5 -0.98 5 -2 5 C-2.45 5.5 -2.91 5.99 -3.38 6.5 C-5 8 -5 8 -7.69 8.19 C-8.45 8.13 -9.21 8.06 -10 8 C-6.67 5.33 -3.33 2.67 0 0 Z " fill="#4E5A7E" transform="translate(460,550)"/>
<path d="M0 0 C0.66 0.33 0.66 0.33 4 2 C4 2.66 4 3.32 4 4 C5.65 3.67 7.3 3.34 9 3 C9.33 3.66 9.66 4.32 10 5 C8.68 6.32 7.36 7.64 6 9 C4.02 6.03 2.04 3.06 0 0 Z " fill="#475480" transform="translate(219,730)"/>
<path d="M0 0 C-0.33 1.65 -0.66 3.3 -1 5 C-7.75 6.12 -7.75 6.12 -10 5 C-8.71 4.16 -7.42 3.33 -6.12 2.5 C-5.41 2.04 -4.69 1.57 -3.95 1.09 C-2 0 -2 0 0 0 Z " fill="#FCE0E7" transform="translate(376,608)"/>
<path d="M0 0 C3.96 1.98 7.92 3.96 12 6 C12 6.33 12 6.66 12 7 C7.25 7.43 4.22 5.98 0 4 C0 2.68 0 1.36 0 0 Z " fill="#475277" transform="translate(672,513)"/>
<path d="M0 0 C0.66 0 1.32 0 2 0 C2 0.66 2 1.32 2 2 C2.99 2.33 3.98 2.66 5 3 C5.33 4.98 5.66 6.96 6 9 C0.12 4.38 0.12 4.38 -1 1 C-0.67 0.67 -0.34 0.34 0 0 Z " fill="#4A567C" transform="translate(849,811)"/>
<path d="M0 0 C4.7 0.46 8.23 1.03 12 4 C12 4.99 12 5.98 12 7 C7.69 5.43 3.94 3.32 0 1 C0 0.67 0 0.34 0 0 Z " fill="#4C5978" transform="translate(282,788)"/>
<path d="M0 0 C-0.33 0.66 -0.66 1.32 -1 2 C-2.98 2 -4.96 2 -7 2 C-7.33 2.99 -7.66 3.98 -8 5 C-8.33 4.34 -8.66 3.68 -9 3 C-9.66 2.67 -10.32 2.34 -11 2 C-6.97 -0.96 -4.83 -1.24 0 0 Z " fill="#404F74" transform="translate(728,763)"/>
<path d="M0 0 C0.99 0.16 0.99 0.16 6 1 C4.58 3.03 3.45 3.9 1.02 4.42 C-0.98 4.66 -2.99 4.84 -5 5 C-5.33 4.34 -5.66 3.68 -6 3 C-4.02 3 -2.04 3 0 3 C0 2.01 0 1.02 0 0 Z " fill="#445175" transform="translate(445,832)"/>
<path d="M0 0 C1.8 2.76 2.01 3.89 1.62 7.25 C1.42 8.16 1.21 9.07 1 10 C-1.31 9.34 -3.62 8.68 -6 8 C-5.6 7.71 -5.6 7.71 -3.56 6.25 C-1.02 4.02 -0.35 3.26 0 0 Z " fill="#726284" transform="translate(327,632)"/>
<path d="M0 0 C0.33 0.99 0.66 1.98 1 3 C-1.35 5.72 -3.62 6.81 -7 8 C-7.66 7.34 -8.32 6.68 -9 6 C-6.03 4.02 -3.06 2.04 0 0 Z " fill="#4B587B" transform="translate(427,573)"/>
<path d="M0 0 C-2.35 2.72 -4.62 3.81 -8 5 C-8.66 4.01 -9.32 3.02 -10 2 C-6.6 -0.09 -3.95 -0.18 0 0 Z " fill="#465377" transform="translate(670,723)"/>
<path d="M0 0 C3.06 3.75 5 7.08 5 12 C4.34 12 3.68 12 3 12 C2.34 10.68 1.68 9.36 1 8 C0.67 8 0.34 8 0 8 C0 5.36 0 2.72 0 0 Z " fill="#566183" transform="translate(961,712)"/>
<path d="M0 0 C1.56 1.81 1.56 1.81 3 4 C2.67 4.99 2.34 5.98 2 7 C1.01 6.67 0.02 6.34 -1 6 C-1 5.34 -1 4.68 -1 4 C-1.66 4 -2.32 4 -3 4 C-3 3.01 -3 2.02 -3 1 C-2.01 0.67 -1.02 0.34 0 0 Z " fill="#F1F9F8" transform="translate(323,631)"/>
<path d="M0 0 C0.66 0.99 1.32 1.98 2 3 C1.12 6.69 1.12 6.69 0 10 C-0.99 10 -1.98 10 -3 10 C-2.39 6.44 -1.42 3.32 0 0 Z " fill="#4F5B7E" transform="translate(758,621)"/>
<path d="M0 0 C0.66 0.33 1.32 0.66 2 1 C0.68 2.32 -0.64 3.64 -2 5 C-2.66 4.67 -3.32 4.34 -4 4 C-4.33 4.99 -4.66 5.98 -5 7 C-5.66 7 -6.32 7 -7 7 C-7 7.66 -7 8.32 -7 9 C-7.66 8.67 -8.32 8.34 -9 8 C-7.84 4.52 -7.09 4.11 -4.06 2.25 C-3.35 1.8 -2.64 1.35 -1.91 0.89 C-1.28 0.6 -0.65 0.3 0 0 Z " fill="#FBDCE3" transform="translate(388,599)"/>
<path d="M0 0 C0.33 0.16 0.33 0.16 2 1 C1.67 1.16 1.67 1.16 0 2 C0 1.34 0 0.68 0 0 Z M-2 2 C-1.34 2.33 -0.68 2.66 0 3 C-1.38 5 -1.38 5 -3 7 C-3.66 7 -4.32 7 -5 7 C-5.33 8.32 -5.66 9.64 -6 11 C-6.66 9.68 -7.32 8.36 -8 7 C-6.02 5.35 -4.04 3.7 -2 2 Z " fill="#E4E8F2" transform="translate(620,797)"/>
<path d="M0 0 C2.38 -0.12 2.38 -0.12 5 0 C5.66 0.66 6.32 1.32 7 2 C7.66 2 8.32 2 9 2 C9.33 3.32 9.66 4.64 10 6 C5.57 4.79 3.02 3.48 0 0 Z " fill="#495378" transform="translate(715,793)"/>
<path d="M0 0 C2.97 1.65 5.94 3.3 9 5 C9 5.66 9 6.32 9 7 C6.19 7.31 6.19 7.31 3 7 C1.11 4.61 0 3.08 0 0 Z " fill="#475378" transform="translate(286,775)"/>
<path d="M0 0 C3.48 0.65 6.09 1.98 9 4 C9 4.66 9 5.32 9 6 C7.68 6 6.36 6 5 6 C4.67 5.34 4.34 4.68 4 4 C1.94 3.38 1.94 3.38 0 3 C0 2.01 0 1.02 0 0 Z " fill="#425176" transform="translate(669,608)"/>
<path d="M0 0 C2.23 2.23 2.69 3.66 3.62 6.62 C3.76 7.03 3.76 7.03 4.41 9.1 C4.61 9.73 4.8 10.35 5 11 C1.12 9.25 1.12 9.25 0 7 C-0.04 4.67 -0.04 2.33 0 0 Z " fill="#545F81" transform="translate(915,603)"/>
<path d="M0 0 C0.33 0 0.66 0 1 0 C1 5.28 1 10.56 1 16 C0.01 16 -0.98 16 -2 16 C-1.34 10.72 -0.68 5.44 0 0 Z " fill="#3B486A" transform="translate(520,810)"/>
<path d="M0 0 C1 3 1 3 -0.44 6.19 C-0.7 6.65 -0.7 6.65 -2 9 C-2.99 9 -3.98 9 -5 9 C-3.91 5.22 -3.09 2.53 0 0 Z " fill="#505F7E" transform="translate(716,766)"/>
<path d="M0 0 C3.26 3.17 6.22 6.4 9 10 C8.01 10.33 7.02 10.66 6 11 C5.59 10.24 5.18 9.47 4.75 8.69 C3.04 6.06 1.59 4.7 -1 3 C-0.67 2.01 -0.34 1.02 0 0 Z " fill="#475277" transform="translate(228,728)"/>
<path d="M0 0 C0.99 0.33 1.98 0.66 3 1 C1.35 2.65 -0.3 4.3 -2 6 C-2.99 5.67 -3.98 5.34 -5 5 C-4.67 4.01 -4.34 3.02 -4 2 C-2.68 2 -1.36 2 0 2 C0 1.34 0 0.68 0 0 Z " fill="#445277" transform="translate(679,713)"/>
<path d="M0 0 C2 1.38 2 1.38 4 3 C4 3.66 4 4.32 4 5 C4.99 5.33 5.98 5.66 7 6 C6.67 6.5 6.67 6.5 5 9 C3.02 6.36 1.04 3.72 -1 1 C-0.67 0.67 -0.34 0.34 0 0 Z " fill="#4C587B" transform="translate(284,703)"/>
<path d="M0 0 C0.66 0.33 1.32 0.66 2 1 C1.43 4.87 -0.49 7.08 -3 10 C-3 8.02 -3 6.04 -3 4 C-2.01 3.67 -1.02 3.34 0 3 C0 2.01 0 1.02 0 0 Z " fill="#47557B" transform="translate(670,561)"/>
<path d="M0 0 C0.66 0.99 1.32 1.98 2 3 C-0.31 5.64 -2.62 8.28 -5 11 C-5.66 10.67 -6.32 10.34 -7 10 C-5.85 8.35 -5.85 8.35 0 0 Z " fill="#E3EBF0" transform="translate(682,549)"/>
<path d="M0 0 C0.33 0.99 0.66 1.98 1 3 C-0.27 3.67 -1.54 4.34 -2.81 5 C-3.52 5.37 -4.23 5.74 -4.96 6.12 C-7 7 -7 7 -10 7 C-8.71 5.83 -7.42 4.66 -6.12 3.5 C-5.77 3.18 -5.77 3.18 -3.95 1.53 C-2 0 -2 0 0 0 Z " fill="#6C6C6E" transform="translate(298,354)"/>
<path d="M0 0 C1.98 0 3.96 0 6 0 C6 1.65 6 3.3 6 5 C5.01 5.33 4.02 5.66 3 6 C2.01 5.01 1.02 4.02 0 3 C0.99 3 1.98 3 3 3 C2.01 2.01 1.02 1.02 0 0 Z " fill="#314475" transform="translate(752,793)"/>
<path d="M0 0 C1.32 0.33 2.64 0.66 4 1 C4.62 3.88 4.62 3.88 5 7 C4.34 7.66 3.68 8.32 3 9 C2.01 6.03 1.02 3.06 0 0 Z " fill="#445075" transform="translate(896,720)"/>
<path d="M0 0 C-1.56 3.82 -4.04 6.19 -7 9 C-6.53 4.78 -4.95 0 0 0 Z " fill="#495576" transform="translate(459,700)"/>
<path d="M0 0 C4.13 6.2 4.13 6.2 3.62 9.25 C3.42 9.83 3.21 10.4 3 11 C0.4 8.29 0.01 7.11 -0.19 3.25 C-0.13 2.18 -0.06 1.11 0 0 Z " fill="#536081" transform="translate(946,676)"/>
<path d="M0 0 C0.26 0.21 0.26 0.21 1.56 1.25 C-4.84 4.33 -4.84 4.33 -7.88 3.94 C-8.39 3.71 -8.91 3.48 -9.44 3.25 C-3.04 -0.93 -3.04 -0.93 0 0 Z " fill="#48537A" transform="translate(299.4375,652.75)"/>
<path d="M0 0 C1.32 0.66 2.64 1.32 4 2 C4.19 4.88 4.19 4.88 4 8 C3.01 8.66 2.02 9.32 1 10 C0.34 9.01 -0.32 8.02 -1 7 C-0.34 6.67 0.32 6.34 1 6 C0.67 4.02 0.34 2.04 0 0 Z " fill="#3D5483" transform="translate(521,600)"/>
<path d="M0 0 C0.33 0.66 0.66 1.32 1 2 C1.66 2.33 2.32 2.66 3 3 C2.76 3.21 2.76 3.21 1.56 4.25 C0 6 0 6 -0.5 8.12 C-0.66 8.74 -0.83 9.36 -1 10 C-1.99 10.33 -2.98 10.66 -4 11 C-3.52 9.54 -3.04 8.08 -2.56 6.62 C-2.3 5.81 -2.03 5 -1.75 4.16 C-1 2 -1 2 0 0 Z " fill="#4E597C" transform="translate(809,501)"/>
<path d="M0 0 C3 3.75 3 3.75 3 6 C2.34 6 1.68 6 1 6 C0.67 6.66 0.34 7.32 0 8 C0 7.34 0 6.68 0 6 C-0.99 5.67 -1.98 5.34 -3 5 C-2.01 3.35 -1.02 1.7 0 0 Z " fill="#6B6B6D" transform="translate(428,386)"/>
<path d="M0 0 C0 3.11 -0.46 5.94 -1 9 C-2.32 8.34 -3.64 7.68 -5 7 C-3.71 4.12 -2.34 2.13 0 0 Z " fill="#4F5977" transform="translate(712,811)"/>
<path d="M0 0 C1.32 0.99 2.64 1.98 4 3 C3.68 3.14 3.68 3.14 2.06 3.88 C0 5 0 5 -1 7 C-1.66 6.67 -2.32 6.34 -3 6 C-3 3 -3 3 -1.5 1.31 C-1.25 1.1 -1.25 1.1 0 0 Z " fill="#4A5677" transform="translate(717,805)"/>
<path d="M0 0 C0.33 0 0.66 0 1 0 C1.04 0.58 1.07 1.16 1.11 1.76 C1.54 6.82 2.37 10.54 5 15 C4.01 15 3.02 15 2 15 C-0.59 10.14 -0.19 5.35 0 0 Z " fill="#515B7E" transform="translate(650,791)"/>
<path d="M0 0 C0.33 0.99 0.66 1.98 1 3 C1.66 3 2.32 3 3 3 C2.34 4.32 1.68 5.64 1 7 C-0.38 5.71 -1.71 4.37 -3 3 C-3 2.34 -3 1.68 -3 1 C-2.01 0.67 -1.02 0.34 0 0 Z " fill="#4B577E" transform="translate(891,777)"/>
<path d="M0 0 C1.65 0.33 1.65 0.33 10 2 C6 4 6 4 2.75 3.12 C1.84 2.75 0.93 2.38 0 2 C0 1.34 0 0.68 0 0 Z " fill="#495479" transform="translate(672,760)"/>
<path d="M0 0 C-0.99 0.99 -1.98 1.98 -3 3 C-5.47 1.85 -7.05 0.95 -9 -1 C-5.8 -2.6 -3.28 -1.03 0 0 Z " fill="#EDF3F8" transform="translate(539,724)"/>
<path d="M0 0 C0.99 1.32 1.98 2.64 3 4 C2.34 5.32 1.68 6.64 1 8 C0.34 8 -0.32 8 -1 8 C-1.04 5.67 -1.04 3.33 -1 1 C-0.67 0.67 -0.34 0.34 0 0 Z " fill="#435277" transform="translate(957,703)"/>
<path d="M0 0 C0.99 0.33 1.98 0.66 3 1 C3 3.64 3 6.28 3 9 C0.87 6.41 -0.54 4.37 -1 1 C-0.67 0.67 -0.34 0.34 0 0 Z " fill="#505F84" transform="translate(273,685)"/>
<path d="M0 0 C2.5 2.94 3.47 5.18 4 9 C3.01 9 2.02 9 1 9 C0.67 6.03 0.34 3.06 0 0 Z " fill="#525C81" transform="translate(911,594)"/>
<path d="M0 0 C0.99 0.33 1.98 0.66 3 1 C3 1.99 3 2.98 3 4 C3.66 4 4.32 4 5 4 C5 5.98 5 7.96 5 10 C2.36 6.87 1.16 3.91 0 0 Z " fill="#475476" transform="translate(515,596)"/>
<path d="M0 0 C1.32 0.33 2.64 0.66 4 1 C3.17 2.15 3.17 2.15 -1 8 C-2 4 -2 4 -1.06 1.75 C-0.71 1.17 -0.36 0.6 0 0 Z " fill="#4C5A7B" transform="translate(695,810)"/>
<path d="M0 0 C0.66 0.33 1.32 0.66 2 1 C2 3.64 2 6.28 2 9 C0.68 8.67 -0.64 8.34 -2 8 C-1.67 7.67 -1.34 7.34 -1 7 C-0.63 4.67 -0.3 2.34 0 0 Z " fill="#465576" transform="translate(746,803)"/>
<path d="M0 0 C-4.82 2.49 -7.61 3.08 -13 2 C-13 1.67 -13 1.34 -13 1 C-11.4 0.64 -9.79 0.28 -8.19 -0.06 C-7.29 -0.26 -6.4 -0.46 -5.48 -0.66 C-3 -1 -3 -1 0 0 Z " fill="#606987" transform="translate(439,803)"/>
<path d="M0 0 C6.75 1.62 6.75 1.62 9 5 C5.7 4.01 2.4 3.02 -1 2 C-0.67 1.34 -0.34 0.68 0 0 Z " fill="#546281" transform="translate(318,728)"/>
<path d="M0 0 C0.66 0 1.32 0 2 0 C2.66 1.98 3.32 3.96 4 6 C2.02 6.33 0.04 6.66 -2 7 C-2 5 -2 5 0 3 C0 2.01 0 1.02 0 0 Z " fill="#505B81" transform="translate(208,701)"/>
<path d="M0 0 C0.66 0 1.32 0 2 0 C2 1.65 2 3.3 2 5 C0.68 5.33 -0.64 5.66 -2 6 C-1.12 1.12 -1.12 1.12 0 0 Z " fill="#3D4B70" transform="translate(459,694)"/>
<path d="M0 0 C0.33 0 0.66 0 1 0 C1.2 6.05 1.2 6.05 1 8 C0.34 8.66 -0.32 9.32 -1 10 C-1.33 7.69 -1.66 5.38 -2 3 C-1.34 3 -0.68 3 0 3 C0 2.01 0 1.02 0 0 Z " fill="#39496D" transform="translate(701,669)"/>
<path d="M0 0 C0.66 0 1.32 0 2 0 C2.66 2.31 3.32 4.62 4 7 C3.01 7.33 2.02 7.66 1 8 C0.67 5.36 0.34 2.72 0 0 Z " fill="#4D587E" transform="translate(896,560)"/>
<path d="M0 0 C0.66 1.32 1.32 2.64 2 4 C1 6 1 6 -2.06 7.12 C-3.03 7.41 -4 7.7 -5 8 C-3.35 5.36 -1.7 2.72 0 0 Z " fill="#E7ECF5" transform="translate(692,535)"/>
<path d="M0 0 C1.65 0.99 3.3 1.98 5 3 C4.01 3.99 3.02 4.98 2 6 C0.68 5.34 -0.64 4.68 -2 4 C-1.34 2.68 -0.68 1.36 0 0 Z " fill="#43527E" transform="translate(686,521)"/>
<path d="M0 0 C0.62 1.88 0.62 1.88 1 4 C-1.57 6.57 -3.48 6.54 -7 7 C-4.67 4.67 -2.33 2.33 0 0 Z " fill="#4F587F" transform="translate(538,516)"/>
<path d="M0 0 C0.66 0 1.32 0 2 0 C3.07 1.96 4.07 3.97 5 6 C4.67 6.66 4.34 7.32 4 8 C3.34 8 2.68 8 2 8 C0.24 4.91 0 3.77 0 0 Z " fill="#4F5C7D" transform="translate(874,509)"/>
<path d="M0 0 C2.64 1.98 5.28 3.96 8 6 C7.67 6.99 7.34 7.98 7 9 C3.87 6.04 1.95 3.9 0 0 Z " fill="#F0F4FB" transform="translate(850,816)"/>
<path d="M0 0 C0.99 1.32 1.98 2.64 3 4 C0.64 6.53 -0.66 7.89 -4 9 C-4 8.01 -4 7.02 -4 6 C-2.68 5.67 -1.36 5.34 0 5 C0 3.35 0 1.7 0 0 Z " fill="#47517A" transform="translate(617,794)"/>
<path d="M0 0 C2.97 0 5.94 0 9 0 C9 0.99 9 1.98 9 3 C7.51 2.67 7.51 2.67 0 1 C0 0.67 0 0.34 0 0 Z " fill="#3D4A6D" transform="translate(447,786)"/>
<path d="M0 0 C4.36 1.16 6.65 2.08 9 6 C6 6 6 6 3 4 C3 3.34 3 2.68 3 2 C2.01 1.67 1.02 1.34 0 1 C0 0.67 0 0.34 0 0 Z " fill="#DEE4EF" transform="translate(238,738)"/>
<path d="M0 0 C0.99 0.99 1.98 1.98 3 3 C2.67 3.66 2.34 4.32 2 5 C0.35 5 -1.3 5 -3 5 C-2.62 3.06 -2.62 3.06 -2 1 C-1.34 0.67 -0.68 0.34 0 0 Z " fill="#484F74" transform="translate(714,729)"/>
<path d="M0 0 C3.8 1.49 5.61 3.76 8 7 C6.68 7.33 5.36 7.66 4 8 C3.71 7.24 3.42 6.47 3.12 5.69 C2 3 2 3 0 0 Z " fill="#455475" transform="translate(220,721)"/>
<path d="M0 0 C4.27 -0.37 6.49 0.59 10 3 C9.67 3.66 9.34 4.32 9 5 C7.51 4.34 7.51 4.34 0 1 C0 0.67 0 0.34 0 0 Z " fill="#505B7C" transform="translate(530,720)"/>
<path d="M0 0 C1.32 0.33 2.64 0.66 4 1 C4.33 2.98 4.66 4.96 5 7 C2.5 5.19 2.5 5.19 0 3 C0 2.01 0 1.02 0 0 Z " fill="#4B577C" transform="translate(501,698)"/>
<path d="M0 0 C0.66 0.33 1.32 0.66 2 1 C1.34 1.99 1.34 1.99 -2 7 C-2.99 6.34 -3.98 5.68 -5 5 C-3.35 3.35 -1.7 1.7 0 0 Z " fill="#495578" transform="translate(404,665)"/>
<path d="M0 0 C1.12 3.75 1.12 3.75 0 6 C-2.56 6.62 -2.56 6.62 -5 7 C-1.12 1.12 -1.12 1.12 0 0 Z " fill="#4F5B7E" transform="translate(534,659)"/>
<path d="M0 0 C2.01 2.56 3.63 5.05 5 8 C3 7 1 6 -1 5 C-0.67 3.35 -0.34 1.7 0 0 Z " fill="#545D7E" transform="translate(332,658)"/>
<path d="M0 0 C0.33 0.16 0.33 0.16 2 1 C2.75 4.44 2.75 4.44 3 8 C2.34 8.66 1.68 9.32 1 10 C-0.16 6.53 -0.07 3.64 0 0 Z " fill="#425174" transform="translate(326,641)"/>
<path d="M0 0 C0.66 0.33 1.32 0.66 2 1 C-2.3 5 -2.3 5 -4 6 C-6.2 5.65 -6.2 5.65 -8 5 C-6.71 4.14 -5.42 3.28 -4.12 2.44 C-3.77 2.2 -3.77 2.2 -1.95 1 C-1.3 0.67 -0.66 0.34 0 0 Z " fill="#FBD4DD" transform="translate(359,617)"/>
<path d="M0 0 C2.69 2.69 3.06 5.38 4 9 C3.01 9.33 2.02 9.66 1 10 C0.67 6.7 0.34 3.4 0 0 Z " fill="#5E678A" transform="translate(886,534)"/>
<path d="M0 0 C0.99 0 1.98 0 3 0 C4.12 3.75 4.12 3.75 3 6 C2.01 5.67 1.02 5.34 0 5 C0 3.35 0 1.7 0 0 Z " fill="#425177" transform="translate(882,530)"/>
<path d="M0 0 C0.66 0.33 1.32 0.66 2 1 C1.67 2.32 1.34 3.64 1 5 C-1.44 4.62 -1.44 4.62 -4 4 C-4.33 3.34 -4.66 2.68 -5 2 C-2.62 0.94 -2.62 0.94 0 0 Z " fill="#525E88" transform="translate(563,503)"/>
<path d="M0 0 C1.19 1.62 1.19 1.62 2 4 C0.62 7.25 0.62 7.25 -1 10 C-1.33 8.68 -1.66 7.36 -2 6 C-1.34 6 -0.68 6 0 6 C-0.09 5.6 -0.09 5.6 -0.56 3.56 C-0.71 2.72 -0.85 1.87 -1 1 C-0.67 0.67 -0.34 0.34 0 0 Z " fill="#46537B" transform="translate(910,802)"/>
<path d="M0 0 C2.69 0.18 5.33 0.62 8 1 C7.67 1.16 7.67 1.16 6 2 C6 2.66 6 3.32 6 4 C5.01 4 4.02 4 3 4 C3 3.34 3 2.68 3 2 C1.68 1.67 0.36 1.34 -1 1 C-0.67 0.67 -0.34 0.34 0 0 Z " fill="#4B5781" transform="translate(437,783)"/>
<path d="M0 0 C0.14 0.32 0.14 0.32 0.88 1.94 C2 4 2 4 4 5 C3.67 5.16 3.67 5.16 2 6 C-0.62 5.06 -0.62 5.06 -3 4 C-2.01 2.68 -1.02 1.36 0 0 Z " fill="#EDF2F6" transform="translate(313,784)"/>
<path d="M0 0 C0.33 0 0.66 0 1 0 C1.25 2.75 1.25 2.75 1 6 C-1 8.38 -1 8.38 -3 10 C-3 9.01 -3 8.02 -3 7 C-2.34 7 -1.68 7 -1 7 C-1.33 6.01 -1.66 5.02 -2 4 C-1.06 1.81 -1.06 1.81 0 0 Z " fill="#D3D8E8" transform="translate(960,782)"/>
<path d="M0 0 C3.3 0.99 6.6 1.98 10 3 C5.45 4.14 3.37 3.43 -1 2 C-0.67 1.34 -0.34 0.68 0 0 Z " fill="#3D4971" transform="translate(541,723)"/>
<path d="M0 0 C1.32 0.33 2.64 0.66 4 1 C4 2.32 4 3.64 4 5 C2.02 4.34 0.04 3.68 -2 3 C-1.34 2.01 -0.68 1.02 0 0 Z " fill="#4E5980" transform="translate(312,724)"/>
<path d="M0 0 C0.66 0.16 0.66 0.16 4 1 C3.34 2.65 2.68 4.3 2 6 C1.01 4.68 0.02 3.36 -1 2 C-0.67 1.34 -0.34 0.68 0 0 Z " fill="#384572" transform="translate(211,710)"/>
<path d="M0 0 C0.66 0.33 1.32 0.66 2 1 C-0.39 2.89 -2.07 4.02 -5 5 C-5.66 4.34 -6.32 3.68 -7 3 C-4.7 1.93 -2.36 0.94 0 0 Z " fill="#F8D5DB" transform="translate(245,678)"/>
<path d="M0 0 C-0.56 1.94 -0.56 1.94 -2 4 C-5.62 4.75 -5.62 4.75 -9 5 C-2.41 0 -2.41 0 0 0 Z " fill="#4E567A" transform="translate(312,645)"/>
<path d="M0 0 C2.25 -0.25 2.25 -0.25 5 0 C7.31 2 7.31 2 9 4 C8.67 4.16 8.67 4.16 7 5 C4.52 3.89 2.32 2.42 0 1 C0 0.67 0 0.34 0 0 Z " fill="#4F5E7F" transform="translate(538,624)"/>
<path d="M0 0 C-0.75 1.94 -0.75 1.94 -2 4 C-4 4.81 -4 4.81 -6 5 C-6.66 4.67 -7.32 4.34 -8 4 C-2.25 0 -2.25 0 0 0 Z " fill="#F9D5E1" transform="translate(351,623)"/>
<path d="M0 0 C2.5 2.94 3.47 5.18 4 9 C3.01 8.67 2.02 8.34 1 8 C-0.35 5.29 -0.07 2.99 0 0 Z " fill="#4F587D" transform="translate(900,568)"/>
<path d="M0 0 C0.66 0.33 1.32 0.66 2 1 C-0.49 3.67 -2.63 5.56 -6 7 C-4.61 3.63 -3.02 2.01 0 0 Z " fill="#DBE2ED" transform="translate(584,554)"/>
<path d="M0 0 C0.66 0.17 0.66 0.17 4 1 C4 2.32 4 3.64 4 5 C2.35 5 0.7 5 -1 5 C-0.67 3.35 -0.34 1.7 0 0 Z " fill="#B4103A" transform="translate(322,496)"/>
<path d="M0 0 C1.65 0.33 3.3 0.66 5 1 C5.33 1.99 5.66 2.98 6 4 C3.36 3.67 0.72 3.34 -2 3 C-1.34 2.01 -0.68 1.02 0 0 Z " fill="#556082" transform="translate(344,811)"/>
<path d="M0 0 C2.97 0.33 5.94 0.66 9 1 C9 1.33 9 1.66 9 2 C7.51 2.16 7.51 2.16 0 3 C0 2.01 0 1.02 0 0 Z " fill="#4D5480" transform="translate(731,773)"/>
<path d="M0 0 C0.66 0 1.32 0 2 0 C2.33 1.32 2.66 2.64 3 4 C1.68 4.33 0.36 4.66 -1 5 C-1.99 3.68 -2.98 2.36 -4 1 C-2.68 1.33 -1.36 1.66 0 2 C0 1.34 0 0.68 0 0 Z " fill="#47557C" transform="translate(252,761)"/>
<path d="M0 0 C0.83 0.16 0.83 0.16 5 1 C4.34 2.32 3.68 3.64 3 5 C2.34 5 1.68 5 1 5 C0.67 3.35 0.34 1.7 0 0 Z " fill="#F0F7FC" transform="translate(969,728)"/>
<path d="M0 0 C0.99 0.33 1.98 0.66 3 1 C2.34 2.98 1.68 4.96 1 7 C0.34 6.67 -0.32 6.34 -1 6 C-1.04 4.33 -1.04 2.67 -1 1 C-0.67 0.67 -0.34 0.34 0 0 Z " fill="#4B5477" transform="translate(780,723)"/>
<path d="M0 0 C1.32 0.33 2.64 0.66 4 1 C4 2.65 4 4.3 4 6 C3.67 6.16 3.67 6.16 2 7 C0.54 4.35 0 3.11 0 0 Z " fill="#F3F2FB" transform="translate(207,694)"/>
<path d="M0 0 C0.66 0.99 1.32 1.98 2 3 C0.62 6.69 0.62 6.69 -1 10 C-1.66 9.34 -2.32 8.68 -3 8 C-2.01 5.36 -1.02 2.72 0 0 Z " fill="#475677" transform="translate(696,689)"/>
<path d="M0 0 C0.66 0 1.32 0 2 0 C2 1.32 2 2.64 2 4 C2.99 4.33 3.98 4.66 5 5 C3.35 5.33 1.7 5.66 0 6 C0 4.02 0 2.04 0 0 Z " fill="#AE113D" transform="translate(203,688)"/>
<path d="M0 0 C0.33 0 0.66 0 1 0 C1 2.31 1 4.62 1 7 C0.34 7.33 0.34 7.33 -3 9 C-2.01 6.03 -1.02 3.06 0 0 Z " fill="#4F5C7A" transform="translate(742,659)"/>
<path d="M0 0 C1.98 0.66 3.96 1.32 6 2 C5.34 2.66 4.68 3.32 4 4 C0.38 3.62 0.38 3.62 -3 3 C-2.01 2.01 -1.02 1.02 0 0 Z " fill="#46547C" transform="translate(660,603)"/>
<path d="M0 0 C0.66 0.33 1.32 0.66 2 1 C-0.25 3.56 -0.25 3.56 -3 6 C-4.32 5.67 -5.64 5.34 -7 5 C-4.69 3.35 -2.38 1.7 0 0 Z " fill="#FCDBE5" transform="translate(499,522)"/>
</svg>
